<svg xmlns="http://www.w3.org/2000/svg" xmlns:xlink="http://www.w3.org/1999/xlink" width="500" zoomAndPan="magnify" viewBox="0 0 375 74.999997" height="100" preserveAspectRatio="xMidYMid meet" version="1.0"><defs><g/><clipPath id="e4645c1f35"><path d="M 14 1.726562 L 22 1.726562 L 22 7 L 14 7 Z M 14 1.726562 " clip-rule="nonzero"/></clipPath><clipPath id="eea6bfcd3f"><path d="M 2.628906 70 L 19 70 L 19 72.976562 L 2.628906 72.976562 Z M 2.628906 70 " clip-rule="nonzero"/></clipPath><clipPath id="f6c743157e"><path d="M 32 70 L 49 70 L 49 72.976562 L 32 72.976562 Z M 32 70 " clip-rule="nonzero"/></clipPath><clipPath id="25c090ec08"><path d="M 79 70 L 95.628906 70 L 95.628906 72.976562 L 79 72.976562 Z M 79 70 " clip-rule="nonzero"/></clipPath><clipPath id="cb33295dff"><path d="M 48 1.726562 L 50 1.726562 L 50 6 L 48 6 Z M 48 1.726562 " clip-rule="nonzero"/></clipPath><clipPath id="9943fd7d9c"><path d="M 2.628906 30 L 17 30 L 17 42 L 2.628906 42 Z M 2.628906 30 " clip-rule="nonzero"/></clipPath><clipPath id="0041ff86bc"><path d="M 2.628906 23 L 17 23 L 17 33 L 2.628906 33 Z M 2.628906 23 " clip-rule="nonzero"/></clipPath></defs><path fill="#ffffff" d="M 76.199219 21 C 75.929688 21 75.710938 20.78125 75.710938 20.511719 C 75.710938 19.113281 76.847656 17.976562 78.246094 17.976562 C 78.355469 17.976562 78.460938 17.984375 78.566406 17.996094 C 78.835938 18.03125 79.027344 18.273438 78.992188 18.542969 C 78.960938 18.8125 78.714844 19.003906 78.445312 18.96875 C 78.382812 18.960938 78.316406 18.957031 78.246094 18.957031 C 77.390625 18.957031 76.691406 19.652344 76.691406 20.511719 C 76.691406 20.78125 76.46875 21 76.199219 21 Z M 76.199219 21 " fill-opacity="1" fill-rule="nonzero"/><path fill="#ffffff" d="M 78.503906 19.09375 C 78.230469 19.09375 78.011719 18.875 78.011719 18.605469 C 78.011719 16.597656 79.648438 14.960938 81.660156 14.960938 C 83.21875 14.960938 84.605469 15.949219 85.113281 17.421875 C 85.199219 17.679688 85.0625 17.957031 84.808594 18.042969 C 84.550781 18.132812 84.273438 17.996094 84.183594 17.742188 C 83.8125 16.664062 82.800781 15.941406 81.660156 15.941406 C 80.191406 15.941406 78.992188 17.136719 78.992188 18.605469 C 78.992188 18.875 78.773438 19.09375 78.503906 19.09375 Z M 78.503906 19.09375 " fill-opacity="1" fill-rule="nonzero"/><path fill="#ffffff" d="M 87.5625 20.992188 C 87.53125 20.992188 87.503906 20.992188 87.472656 20.984375 C 87.203125 20.9375 87.027344 20.683594 87.078125 20.414062 C 87.097656 20.296875 87.109375 20.171875 87.109375 20.046875 C 87.109375 18.933594 86.203125 18.03125 85.089844 18.03125 C 84.140625 18.03125 83.332031 18.675781 83.121094 19.597656 C 83.058594 19.863281 82.800781 20.027344 82.535156 19.964844 C 82.269531 19.90625 82.105469 19.644531 82.164062 19.378906 C 82.480469 18.007812 83.683594 17.050781 85.09375 17.050781 C 86.746094 17.050781 88.09375 18.394531 88.09375 20.046875 C 88.09375 20.230469 88.078125 20.414062 88.042969 20.59375 C 88 20.828125 87.796875 20.992188 87.5625 20.992188 Z M 87.5625 20.992188 " fill-opacity="1" fill-rule="nonzero"/><path fill="#ffffff" d="M 76.199219 21 L 73.378906 21 C 73.105469 21 72.886719 20.78125 72.886719 20.511719 C 72.886719 20.242188 73.105469 20.023438 73.378906 20.023438 L 76.199219 20.023438 C 76.46875 20.023438 76.691406 20.242188 76.691406 20.511719 C 76.691406 20.78125 76.46875 21 76.199219 21 Z M 76.199219 21 " fill-opacity="1" fill-rule="nonzero"/><path fill="#ffffff" d="M 90.425781 21 L 87.601562 21 C 87.332031 21 87.113281 20.78125 87.113281 20.511719 C 87.113281 20.242188 87.332031 20.023438 87.601562 20.023438 L 90.425781 20.023438 C 90.695312 20.023438 90.914062 20.242188 90.914062 20.511719 C 90.914062 20.78125 90.695312 21 90.425781 21 Z M 90.425781 21 " fill-opacity="1" fill-rule="nonzero"/><path fill="#ffffff" d="M 87.917969 22.335938 L 76.199219 22.335938 C 75.929688 22.335938 75.710938 22.117188 75.710938 21.847656 C 75.710938 21.578125 75.929688 21.359375 76.199219 21.359375 L 87.917969 21.359375 C 88.1875 21.359375 88.40625 21.578125 88.40625 21.847656 C 88.40625 22.117188 88.1875 22.335938 87.917969 22.335938 Z M 87.917969 22.335938 " fill-opacity="1" fill-rule="nonzero"/><path fill="#ffffff" d="M 12.574219 7.917969 C 12.304688 7.917969 12.085938 7.699219 12.085938 7.429688 C 12.085938 6.03125 13.222656 4.894531 14.621094 4.894531 C 14.730469 4.894531 14.839844 4.902344 14.941406 4.914062 C 15.210938 4.949219 15.402344 5.191406 15.367188 5.460938 C 15.335938 5.730469 15.089844 5.917969 14.820312 5.886719 C 14.757812 5.878906 14.691406 5.875 14.621094 5.875 C 13.765625 5.875 13.066406 6.570312 13.066406 7.429688 C 13.066406 7.699219 12.84375 7.917969 12.574219 7.917969 Z M 12.574219 7.917969 " fill-opacity="1" fill-rule="nonzero"/><g clip-path="url(#e4645c1f35)"><path fill="#ffffff" d="M 14.878906 6.011719 C 14.605469 6.011719 14.386719 5.792969 14.386719 5.523438 C 14.386719 3.515625 16.023438 1.878906 18.035156 1.878906 C 19.59375 1.878906 20.980469 2.867188 21.488281 4.339844 C 21.574219 4.597656 21.4375 4.875 21.183594 4.960938 C 20.925781 5.050781 20.648438 4.914062 20.558594 4.660156 C 20.1875 3.582031 19.175781 2.859375 18.035156 2.859375 C 16.5625 2.859375 15.367188 4.054688 15.367188 5.523438 C 15.367188 5.792969 15.148438 6.011719 14.878906 6.011719 Z M 14.878906 6.011719 " fill-opacity="1" fill-rule="nonzero"/></g><path fill="#ffffff" d="M 23.9375 7.910156 C 23.90625 7.910156 23.878906 7.910156 23.847656 7.902344 C 23.578125 7.855469 23.402344 7.601562 23.453125 7.332031 C 23.472656 7.214844 23.484375 7.089844 23.484375 6.964844 C 23.484375 5.851562 22.578125 4.949219 21.464844 4.949219 C 20.515625 4.949219 19.703125 5.59375 19.496094 6.515625 C 19.433594 6.78125 19.171875 6.945312 18.910156 6.882812 C 18.644531 6.824219 18.480469 6.5625 18.539062 6.296875 C 18.855469 4.925781 20.054688 3.96875 21.46875 3.96875 C 23.121094 3.96875 24.46875 5.316406 24.46875 6.964844 C 24.46875 7.148438 24.453125 7.332031 24.417969 7.511719 C 24.375 7.746094 24.167969 7.910156 23.9375 7.910156 Z M 23.9375 7.910156 " fill-opacity="1" fill-rule="nonzero"/><path fill="#ffffff" d="M 12.574219 7.917969 L 9.753906 7.917969 C 9.480469 7.917969 9.261719 7.699219 9.261719 7.429688 C 9.261719 7.160156 9.480469 6.941406 9.753906 6.941406 L 12.574219 6.941406 C 12.84375 6.941406 13.066406 7.160156 13.066406 7.429688 C 13.066406 7.699219 12.84375 7.917969 12.574219 7.917969 Z M 12.574219 7.917969 " fill-opacity="1" fill-rule="nonzero"/><path fill="#ffffff" d="M 26.796875 7.917969 L 23.976562 7.917969 C 23.707031 7.917969 23.484375 7.699219 23.484375 7.429688 C 23.484375 7.160156 23.707031 6.941406 23.976562 6.941406 L 26.796875 6.941406 C 27.070312 6.941406 27.289062 7.160156 27.289062 7.429688 C 27.289062 7.699219 27.070312 7.917969 26.796875 7.917969 Z M 26.796875 7.917969 " fill-opacity="1" fill-rule="nonzero"/><g clip-path="url(#eea6bfcd3f)"><path fill="#ffffff" d="M 15.484375 72.980469 C 14.679688 72.980469 14.257812 72.609375 13.921875 72.308594 C 13.632812 72.050781 13.441406 71.882812 13.007812 71.882812 C 12.578125 71.882812 12.386719 72.050781 12.101562 72.308594 C 11.761719 72.609375 11.34375 72.980469 10.539062 72.980469 C 9.734375 72.980469 9.3125 72.609375 8.976562 72.308594 C 8.6875 72.050781 8.496094 71.882812 8.066406 71.882812 C 7.636719 71.882812 7.445312 72.050781 7.15625 72.308594 C 6.820312 72.609375 6.402344 72.980469 5.59375 72.980469 C 4.792969 72.980469 4.371094 72.609375 4.035156 72.308594 C 3.746094 72.050781 3.558594 71.882812 3.125 71.882812 C 2.855469 71.882812 2.636719 71.664062 2.636719 71.394531 C 2.636719 71.125 2.855469 70.90625 3.125 70.90625 C 3.929688 70.90625 4.347656 71.277344 4.6875 71.578125 C 4.972656 71.835938 5.164062 72.003906 5.59375 72.003906 C 6.027344 72.003906 6.214844 71.835938 6.503906 71.578125 C 6.839844 71.277344 7.261719 70.90625 8.066406 70.90625 C 8.871094 70.90625 9.292969 71.277344 9.628906 71.578125 C 9.917969 71.835938 10.105469 72.003906 10.539062 72.003906 C 10.96875 72.003906 11.160156 71.835938 11.449219 71.578125 C 11.785156 71.277344 12.203125 70.90625 13.007812 70.90625 C 13.8125 70.90625 14.234375 71.277344 14.570312 71.578125 C 14.859375 71.835938 15.050781 72.003906 15.484375 72.003906 C 15.917969 72.003906 16.105469 71.835938 16.394531 71.578125 C 16.730469 71.277344 17.152344 70.90625 17.957031 70.90625 C 18.226562 70.90625 18.445312 71.125 18.445312 71.394531 C 18.445312 71.664062 18.226562 71.882812 17.957031 71.882812 C 17.527344 71.882812 17.335938 72.050781 17.046875 72.308594 C 16.707031 72.609375 16.289062 72.980469 15.484375 72.980469 Z M 15.484375 72.980469 " fill-opacity="1" fill-rule="nonzero"/></g><g clip-path="url(#f6c743157e)"><path fill="#ffffff" d="M 45.101562 72.980469 C 44.300781 72.980469 43.878906 72.609375 43.539062 72.308594 C 43.253906 72.050781 43.0625 71.882812 42.628906 71.882812 C 42.199219 71.882812 42.007812 72.050781 41.71875 72.308594 C 41.382812 72.609375 40.964844 72.980469 40.15625 72.980469 C 39.355469 72.980469 38.933594 72.609375 38.59375 72.308594 C 38.308594 72.050781 38.117188 71.882812 37.6875 71.882812 C 37.253906 71.882812 37.066406 72.050781 36.777344 72.308594 C 36.4375 72.609375 36.019531 72.980469 35.214844 72.980469 C 34.414062 72.980469 33.992188 72.609375 33.65625 72.308594 C 33.367188 72.050781 33.179688 71.882812 32.746094 71.882812 C 32.476562 71.882812 32.257812 71.664062 32.257812 71.394531 C 32.257812 71.125 32.476562 70.90625 32.746094 70.90625 C 33.550781 70.90625 33.96875 71.277344 34.308594 71.578125 C 34.59375 71.835938 34.785156 72.003906 35.214844 72.003906 C 35.648438 72.003906 35.835938 71.835938 36.125 71.578125 C 36.464844 71.277344 36.882812 70.90625 37.6875 70.90625 C 38.492188 70.90625 38.914062 71.277344 39.25 71.578125 C 39.539062 71.835938 39.726562 72.003906 40.160156 72.003906 C 40.589844 72.003906 40.78125 71.835938 41.070312 71.578125 C 41.40625 71.277344 41.824219 70.90625 42.632812 70.90625 C 43.433594 70.90625 43.855469 71.277344 44.191406 71.578125 C 44.480469 71.835938 44.671875 72.003906 45.105469 72.003906 C 45.539062 72.003906 45.726562 71.835938 46.015625 71.578125 C 46.351562 71.277344 46.773438 70.90625 47.578125 70.90625 C 47.847656 70.90625 48.066406 71.125 48.066406 71.394531 C 48.066406 71.664062 47.847656 71.882812 47.578125 71.882812 C 47.148438 71.882812 46.957031 72.050781 46.667969 72.308594 C 46.328125 72.609375 45.90625 72.980469 45.101562 72.980469 Z M 45.101562 72.980469 " fill-opacity="1" fill-rule="nonzero"/></g><g clip-path="url(#25c090ec08)"><path fill="#ffffff" d="M 92.660156 72.980469 C 91.855469 72.980469 91.433594 72.609375 91.097656 72.308594 C 90.808594 72.050781 90.621094 71.882812 90.1875 71.882812 C 89.753906 71.882812 89.566406 72.050781 89.277344 72.308594 C 88.941406 72.609375 88.519531 72.980469 87.714844 72.980469 C 86.914062 72.980469 86.492188 72.609375 86.15625 72.308594 C 85.867188 72.050781 85.675781 71.882812 85.246094 71.882812 C 84.8125 71.882812 84.625 72.050781 84.335938 72.308594 C 84 72.609375 83.578125 72.980469 82.777344 72.980469 C 81.972656 72.980469 81.550781 72.609375 81.214844 72.308594 C 80.925781 72.050781 80.738281 71.882812 80.304688 71.882812 C 80.035156 71.882812 79.816406 71.664062 79.816406 71.394531 C 79.816406 71.125 80.035156 70.90625 80.304688 70.90625 C 81.109375 70.90625 81.527344 71.277344 81.867188 71.578125 C 82.152344 71.835938 82.34375 72.003906 82.777344 72.003906 C 83.207031 72.003906 83.398438 71.835938 83.683594 71.578125 C 84.023438 71.277344 84.441406 70.90625 85.246094 70.90625 C 86.046875 70.90625 86.46875 71.277344 86.808594 71.578125 C 87.09375 71.835938 87.285156 72.003906 87.714844 72.003906 C 88.148438 72.003906 88.339844 71.835938 88.625 71.578125 C 88.964844 71.277344 89.382812 70.90625 90.1875 70.90625 C 90.992188 70.90625 91.414062 71.277344 91.75 71.578125 C 92.039062 71.835938 92.226562 72.003906 92.660156 72.003906 C 93.09375 72.003906 93.28125 71.835938 93.574219 71.578125 C 93.910156 71.277344 94.328125 70.90625 95.136719 70.90625 C 95.40625 70.90625 95.625 71.125 95.625 71.394531 C 95.625 71.664062 95.40625 71.882812 95.136719 71.882812 C 94.703125 71.882812 94.515625 72.050781 94.222656 72.308594 C 93.882812 72.609375 93.464844 72.980469 92.660156 72.980469 Z M 92.660156 72.980469 " fill-opacity="1" fill-rule="nonzero"/></g><path fill="#ffffff" d="M 66.375 64.878906 L 54.285156 64.878906 C 54.015625 64.878906 53.796875 64.660156 53.796875 64.390625 C 53.796875 64.121094 54.015625 63.902344 54.285156 63.902344 L 66.375 63.902344 C 66.644531 63.902344 66.863281 64.121094 66.863281 64.390625 C 66.863281 64.660156 66.644531 64.878906 66.375 64.878906 Z M 66.375 64.878906 " fill-opacity="1" fill-rule="nonzero"/><path fill="#ffffff" d="M 22.625 34.503906 C 22.355469 34.503906 22.136719 34.285156 22.136719 34.015625 L 22.136719 25.808594 C 22.136719 25.539062 22.355469 25.320312 22.625 25.320312 C 22.894531 25.320312 23.117188 25.539062 23.117188 25.808594 L 23.117188 34.015625 C 23.117188 34.285156 22.894531 34.503906 22.625 34.503906 Z M 22.625 34.503906 " fill-opacity="1" fill-rule="nonzero"/><path fill="#ffffff" d="M 48.546875 54.539062 L 22.136719 54.539062 L 22.136719 41.175781 C 22.136719 40.90625 22.355469 40.6875 22.625 40.6875 C 22.894531 40.6875 23.117188 40.90625 23.117188 41.175781 L 23.117188 53.558594 L 48.546875 53.558594 C 48.816406 53.558594 49.035156 53.777344 49.035156 54.046875 C 49.035156 54.320312 48.816406 54.539062 48.546875 54.539062 Z M 48.546875 54.539062 " fill-opacity="1" fill-rule="nonzero"/><path fill="#ffffff" d="M 74.957031 54.539062 L 48.546875 54.539062 C 48.277344 54.539062 48.054688 54.320312 48.054688 54.046875 C 48.054688 53.777344 48.277344 53.558594 48.546875 53.558594 L 73.976562 53.558594 L 73.976562 25.957031 C 73.976562 25.6875 74.195312 25.464844 74.46875 25.464844 C 74.738281 25.464844 74.957031 25.6875 74.957031 25.957031 Z M 74.957031 54.539062 " fill-opacity="1" fill-rule="nonzero"/><path fill="#ffffff" d="M 39.136719 28.542969 L 57.953125 28.542969 L 57.953125 31.519531 L 39.136719 31.519531 Z M 39.136719 28.542969 " fill-opacity="1" fill-rule="nonzero"/><path fill="#ffffff" d="M 44.703125 41.664062 L 16.683594 41.664062 L 22.371094 33.527344 L 44.703125 33.527344 Z M 18.5625 40.6875 L 43.726562 40.6875 L 43.726562 34.503906 L 22.882812 34.503906 Z M 18.5625 40.6875 " fill-opacity="1" fill-rule="nonzero"/><path fill="#ffffff" d="M 44.703125 49.46875 L 24.789062 49.46875 L 24.789062 40.6875 L 44.703125 40.6875 Z M 25.765625 48.492188 L 43.726562 48.492188 L 43.726562 41.664062 L 25.765625 41.664062 Z M 25.765625 48.492188 " fill-opacity="1" fill-rule="nonzero"/><path fill="#ffffff" d="M 34.746094 49.46875 C 34.476562 49.46875 34.257812 49.25 34.257812 48.980469 L 34.257812 41.175781 C 34.257812 40.90625 34.476562 40.6875 34.746094 40.6875 C 35.015625 40.6875 35.234375 40.90625 35.234375 41.175781 L 35.234375 48.980469 C 35.234375 49.25 35.015625 49.46875 34.746094 49.46875 Z M 34.746094 49.46875 " fill-opacity="1" fill-rule="nonzero"/><path fill="#ffffff" d="M 66.863281 54.539062 L 53.796875 54.539062 L 53.796875 33.527344 L 66.863281 33.527344 Z M 54.777344 53.558594 L 65.882812 53.558594 L 65.882812 34.503906 L 54.777344 34.503906 Z M 54.777344 53.558594 " fill-opacity="1" fill-rule="nonzero"/><path fill="#ffffff" d="M 63.628906 42.664062 L 64.609375 42.664062 L 64.609375 45.402344 L 63.628906 45.402344 Z M 63.628906 42.664062 " fill-opacity="1" fill-rule="nonzero"/><path fill="#ffffff" d="M 21.277344 35.453125 L 44.214844 35.453125 L 44.214844 36.433594 L 21.277344 36.433594 Z M 21.277344 35.453125 " fill-opacity="1" fill-rule="nonzero"/><path fill="#ffffff" d="M 19.449219 38.070312 L 44.214844 38.070312 L 44.214844 39.050781 L 19.449219 39.050781 Z M 19.449219 38.070312 " fill-opacity="1" fill-rule="nonzero"/><path fill="#ffffff" d="M 78.992188 26.988281 L 77.523438 26.988281 C 75.832031 26.988281 74.976562 26.667969 74.148438 26.359375 C 73.367188 26.070312 72.628906 25.796875 71.117188 25.796875 C 69.601562 25.796875 68.863281 26.070312 68.082031 26.359375 C 67.253906 26.667969 66.398438 26.988281 64.707031 26.988281 C 63.019531 26.988281 62.164062 26.667969 61.332031 26.359375 C 60.554688 26.070312 59.8125 25.796875 58.300781 25.796875 C 56.789062 25.796875 56.050781 26.070312 55.269531 26.359375 C 54.441406 26.667969 53.585938 26.988281 51.894531 26.988281 C 50.203125 26.988281 49.347656 26.667969 48.519531 26.359375 C 47.738281 26.070312 47 25.796875 45.488281 25.796875 C 43.972656 25.796875 43.238281 26.070312 42.453125 26.359375 C 41.625 26.667969 40.769531 26.988281 39.078125 26.988281 C 37.390625 26.988281 36.535156 26.667969 35.707031 26.359375 C 34.925781 26.070312 34.1875 25.796875 32.675781 25.796875 C 31.160156 25.796875 30.425781 26.070312 29.640625 26.359375 C 28.8125 26.667969 27.957031 26.988281 26.265625 26.988281 C 24.578125 26.988281 23.722656 26.667969 22.890625 26.359375 C 22.113281 26.070312 21.371094 25.796875 19.859375 25.796875 L 18.320312 25.796875 L 48.703125 4.292969 Z M 58.304688 24.816406 C 59.992188 24.816406 60.847656 25.136719 61.679688 25.445312 C 62.457031 25.738281 63.195312 26.011719 64.710938 26.011719 C 66.222656 26.011719 66.960938 25.738281 67.742188 25.445312 C 68.570312 25.136719 69.425781 24.816406 71.117188 24.816406 C 72.808594 24.816406 73.664062 25.136719 74.492188 25.445312 C 74.917969 25.601562 75.328125 25.757812 75.859375 25.863281 L 48.6875 5.503906 L 21.277344 24.90625 C 22.113281 25.023438 22.683594 25.234375 23.242188 25.445312 C 24.023438 25.738281 24.761719 26.011719 26.273438 26.011719 C 27.789062 26.011719 28.523438 25.738281 29.308594 25.445312 C 30.136719 25.136719 30.992188 24.816406 32.683594 24.816406 C 34.371094 24.816406 35.226562 25.136719 36.054688 25.445312 C 36.835938 25.738281 37.574219 26.011719 39.085938 26.011719 C 40.601562 26.011719 41.335938 25.738281 42.121094 25.445312 C 42.949219 25.136719 43.804688 24.816406 45.496094 24.816406 C 47.183594 24.816406 48.039062 25.136719 48.871094 25.445312 C 49.648438 25.738281 50.386719 26.011719 51.902344 26.011719 C 53.414062 26.011719 54.152344 25.738281 54.933594 25.445312 C 55.757812 25.136719 56.613281 24.816406 58.304688 24.816406 Z M 58.304688 24.816406 " fill-opacity="1" fill-rule="nonzero"/><g clip-path="url(#cb33295dff)"><path fill="#ffffff" d="M 48.695312 5.390625 C 48.425781 5.390625 48.207031 5.167969 48.207031 4.898438 L 48.207031 2.214844 C 48.207031 1.945312 48.425781 1.726562 48.695312 1.726562 C 48.964844 1.726562 49.183594 1.945312 49.183594 2.214844 L 49.183594 4.898438 C 49.183594 5.167969 48.964844 5.390625 48.695312 5.390625 Z M 48.695312 5.390625 " fill-opacity="1" fill-rule="nonzero"/></g><path fill="#ffffff" d="M 48.695312 21.472656 C 45.714844 21.472656 43.289062 19.050781 43.289062 16.074219 C 43.289062 13.097656 45.714844 10.679688 48.695312 10.679688 C 51.675781 10.679688 54.101562 13.097656 54.101562 16.074219 C 54.101562 19.050781 51.675781 21.472656 48.695312 21.472656 Z M 48.695312 11.65625 C 46.253906 11.65625 44.269531 13.640625 44.269531 16.074219 C 44.269531 18.511719 46.253906 20.492188 48.695312 20.492188 C 51.136719 20.492188 53.121094 18.511719 53.121094 16.074219 C 53.121094 13.640625 51.136719 11.65625 48.695312 11.65625 Z M 48.695312 11.65625 " fill-opacity="1" fill-rule="nonzero"/><path fill="#ffffff" d="M 48.695312 19.136719 C 47.003906 19.136719 45.625 17.765625 45.625 16.074219 C 45.625 14.382812 47 13.007812 48.695312 13.007812 C 50.386719 13.007812 51.765625 14.382812 51.765625 16.074219 C 51.765625 17.765625 50.386719 19.136719 48.695312 19.136719 Z M 48.695312 13.988281 C 47.542969 13.988281 46.605469 14.925781 46.605469 16.074219 C 46.605469 17.226562 47.542969 18.160156 48.695312 18.160156 C 49.847656 18.160156 50.785156 17.226562 50.785156 16.074219 C 50.785156 14.925781 49.847656 13.988281 48.695312 13.988281 Z M 48.695312 13.988281 " fill-opacity="1" fill-rule="nonzero"/><path fill="#ffffff" d="M 46.683594 14.957031 C 46.582031 14.957031 46.476562 14.925781 46.390625 14.859375 L 44.511719 13.46875 C 44.296875 13.308594 44.25 13 44.410156 12.785156 C 44.570312 12.566406 44.878906 12.523438 45.097656 12.683594 L 46.972656 14.074219 C 47.191406 14.234375 47.238281 14.542969 47.078125 14.757812 C 46.980469 14.886719 46.832031 14.957031 46.683594 14.957031 Z M 46.683594 14.957031 " fill-opacity="1" fill-rule="nonzero"/><path fill="#ffffff" d="M 50.816406 14.960938 C 50.664062 14.960938 50.515625 14.890625 50.417969 14.757812 C 50.257812 14.539062 50.308594 14.230469 50.53125 14.074219 L 52.246094 12.84375 C 52.464844 12.6875 52.773438 12.734375 52.929688 12.953125 C 53.089844 13.171875 53.039062 13.480469 52.820312 13.636719 L 51.101562 14.867188 C 51.015625 14.929688 50.914062 14.960938 50.816406 14.960938 Z M 50.816406 14.960938 " fill-opacity="1" fill-rule="nonzero"/><path fill="#ffffff" d="M 44.804688 19.582031 C 44.65625 19.582031 44.507812 19.511719 44.410156 19.382812 C 44.25 19.164062 44.296875 18.859375 44.511719 18.699219 L 46.390625 17.304688 C 46.609375 17.144531 46.914062 17.191406 47.078125 17.40625 C 47.238281 17.625 47.191406 17.929688 46.972656 18.09375 L 45.097656 19.484375 C 45.007812 19.546875 44.90625 19.582031 44.804688 19.582031 Z M 44.804688 19.582031 " fill-opacity="1" fill-rule="nonzero"/><path fill="#ffffff" d="M 52.53125 19.417969 C 52.433594 19.417969 52.335938 19.386719 52.246094 19.324219 L 50.53125 18.09375 C 50.308594 17.9375 50.257812 17.632812 50.417969 17.410156 C 50.578125 17.191406 50.882812 17.140625 51.101562 17.300781 L 52.820312 18.53125 C 53.039062 18.691406 53.089844 18.996094 52.929688 19.214844 C 52.835938 19.347656 52.6875 19.417969 52.53125 19.417969 Z M 52.53125 19.417969 " fill-opacity="1" fill-rule="nonzero"/><path fill="#ffffff" d="M 77.015625 56.347656 L 19.953125 56.347656 L 19.953125 53.558594 L 77.015625 53.558594 Z M 20.933594 55.371094 L 76.035156 55.371094 L 76.035156 54.539062 L 20.933594 54.539062 Z M 20.933594 55.371094 " fill-opacity="1" fill-rule="nonzero"/><path fill="#ffffff" d="M 25.328125 26.445312 C 25.054688 26.445312 24.835938 26.226562 24.835938 25.957031 L 24.835938 21.585938 C 24.835938 21.316406 25.054688 21.097656 25.328125 21.097656 C 25.597656 21.097656 25.816406 21.316406 25.816406 21.585938 L 25.816406 25.957031 C 25.816406 26.226562 25.597656 26.445312 25.328125 26.445312 Z M 25.328125 26.445312 " fill-opacity="1" fill-rule="nonzero"/><path fill="#ffffff" d="M 30 26.203125 C 29.730469 26.203125 29.511719 25.984375 29.511719 25.714844 L 29.511719 18.3125 C 29.511719 18.042969 29.730469 17.824219 30 17.824219 C 30.269531 17.824219 30.492188 18.042969 30.492188 18.3125 L 30.492188 25.714844 C 30.492188 25.984375 30.269531 26.203125 30 26.203125 Z M 30 26.203125 " fill-opacity="1" fill-rule="nonzero"/><path fill="#ffffff" d="M 34.671875 25.847656 C 34.402344 25.847656 34.183594 25.625 34.183594 25.355469 L 34.183594 14.929688 C 34.183594 14.660156 34.402344 14.441406 34.671875 14.441406 C 34.945312 14.441406 35.164062 14.660156 35.164062 14.929688 L 35.164062 25.355469 C 35.164062 25.625 34.945312 25.847656 34.671875 25.847656 Z M 34.671875 25.847656 " fill-opacity="1" fill-rule="nonzero"/><path fill="#ffffff" d="M 39.347656 26.988281 C 39.078125 26.988281 38.859375 26.769531 38.859375 26.5 L 38.859375 11.515625 C 38.859375 11.246094 39.078125 11.027344 39.347656 11.027344 C 39.617188 11.027344 39.839844 11.246094 39.839844 11.515625 L 39.839844 26.496094 C 39.839844 26.769531 39.617188 26.988281 39.347656 26.988281 Z M 39.347656 26.988281 " fill-opacity="1" fill-rule="nonzero"/><path fill="#ffffff" d="M 44.019531 25.898438 C 43.75 25.898438 43.53125 25.679688 43.53125 25.410156 L 43.53125 17.699219 C 43.53125 17.425781 43.75 17.207031 44.019531 17.207031 C 44.292969 17.207031 44.511719 17.425781 44.511719 17.699219 L 44.511719 25.410156 C 44.511719 25.679688 44.292969 25.898438 44.019531 25.898438 Z M 44.019531 25.898438 " fill-opacity="1" fill-rule="nonzero"/><path fill="#ffffff" d="M 44.019531 14.746094 C 43.75 14.746094 43.53125 14.527344 43.53125 14.253906 L 43.53125 8.371094 C 43.53125 8.101562 43.75 7.882812 44.019531 7.882812 C 44.292969 7.882812 44.511719 8.101562 44.511719 8.371094 L 44.511719 14.253906 C 44.511719 14.527344 44.292969 14.746094 44.019531 14.746094 Z M 44.019531 14.746094 " fill-opacity="1" fill-rule="nonzero"/><path fill="#ffffff" d="M 48.695312 25.898438 C 48.425781 25.898438 48.207031 25.679688 48.207031 25.410156 L 48.207031 21.183594 C 48.207031 20.914062 48.425781 20.695312 48.695312 20.695312 C 48.964844 20.695312 49.183594 20.914062 49.183594 21.183594 L 49.183594 25.410156 C 49.183594 25.679688 48.964844 25.898438 48.695312 25.898438 Z M 48.695312 25.898438 " fill-opacity="1" fill-rule="nonzero"/><path fill="#ffffff" d="M 48.695312 18.886719 C 48.425781 18.886719 48.207031 18.667969 48.207031 18.394531 L 48.207031 13.5 C 48.207031 13.230469 48.425781 13.011719 48.695312 13.011719 C 48.964844 13.011719 49.183594 13.230469 49.183594 13.5 L 49.183594 18.394531 C 49.183594 18.667969 48.964844 18.886719 48.695312 18.886719 Z M 48.695312 18.886719 " fill-opacity="1" fill-rule="nonzero"/><path fill="#ffffff" d="M 48.695312 11.417969 C 48.425781 11.417969 48.207031 11.195312 48.207031 10.925781 L 48.207031 5.160156 C 48.207031 4.890625 48.425781 4.671875 48.695312 4.671875 C 48.964844 4.671875 49.183594 4.890625 49.183594 5.160156 L 49.183594 10.925781 C 49.183594 11.195312 48.964844 11.417969 48.695312 11.417969 Z M 48.695312 11.417969 " fill-opacity="1" fill-rule="nonzero"/><path fill="#ffffff" d="M 53.371094 26.445312 C 53.097656 26.445312 52.878906 26.226562 52.878906 25.957031 L 52.878906 17.699219 C 52.878906 17.425781 53.097656 17.207031 53.371094 17.207031 C 53.640625 17.207031 53.859375 17.425781 53.859375 17.699219 L 53.859375 25.957031 C 53.859375 26.226562 53.640625 26.445312 53.371094 26.445312 Z M 53.371094 26.445312 " fill-opacity="1" fill-rule="nonzero"/><path fill="#ffffff" d="M 53.371094 14.746094 C 53.097656 14.746094 52.878906 14.527344 52.878906 14.253906 L 52.878906 8.402344 C 52.878906 8.128906 53.097656 7.910156 53.371094 7.910156 C 53.640625 7.910156 53.859375 8.128906 53.859375 8.402344 L 53.859375 14.253906 C 53.859375 14.527344 53.640625 14.746094 53.371094 14.746094 Z M 53.371094 14.746094 " fill-opacity="1" fill-rule="nonzero"/><path fill="#ffffff" d="M 58.042969 25.796875 C 57.773438 25.796875 57.550781 25.578125 57.550781 25.308594 L 57.550781 11.992188 C 57.550781 11.722656 57.773438 11.503906 58.042969 11.503906 C 58.3125 11.503906 58.53125 11.722656 58.53125 11.992188 L 58.53125 25.308594 C 58.53125 25.578125 58.3125 25.796875 58.042969 25.796875 Z M 58.042969 25.796875 " fill-opacity="1" fill-rule="nonzero"/><path fill="#ffffff" d="M 62.71875 26.445312 C 62.445312 26.445312 62.226562 26.226562 62.226562 25.957031 L 62.226562 15.699219 C 62.226562 15.429688 62.445312 15.210938 62.71875 15.210938 C 62.988281 15.210938 63.207031 15.429688 63.207031 15.699219 L 63.207031 25.957031 C 63.207031 26.226562 62.988281 26.445312 62.71875 26.445312 Z M 62.71875 26.445312 " fill-opacity="1" fill-rule="nonzero"/><path fill="#ffffff" d="M 67.390625 26.445312 C 67.117188 26.445312 66.898438 26.226562 66.898438 25.957031 L 66.898438 18.929688 C 66.898438 18.660156 67.117188 18.4375 67.390625 18.4375 C 67.660156 18.4375 67.878906 18.660156 67.878906 18.929688 L 67.878906 25.957031 C 67.878906 26.226562 67.660156 26.445312 67.390625 26.445312 Z M 67.390625 26.445312 " fill-opacity="1" fill-rule="nonzero"/><path fill="#ffffff" d="M 72.0625 25.796875 C 71.792969 25.796875 71.574219 25.578125 71.574219 25.308594 L 71.574219 22.441406 C 71.574219 22.171875 71.792969 21.953125 72.0625 21.953125 C 72.335938 21.953125 72.554688 22.171875 72.554688 22.441406 L 72.554688 25.308594 C 72.554688 25.578125 72.335938 25.796875 72.0625 25.796875 Z M 72.0625 25.796875 " fill-opacity="1" fill-rule="nonzero"/><path fill="#ffffff" d="M 25.175781 66.414062 L 23.234375 66.414062 L 22.59375 55.890625 C 22.578125 55.621094 22.78125 55.390625 23.050781 55.371094 C 23.320312 55.355469 23.550781 55.558594 23.570312 55.828125 L 24.152344 65.433594 L 24.253906 65.433594 L 24.835938 55.828125 C 24.851562 55.558594 25.085938 55.351562 25.355469 55.371094 C 25.625 55.386719 25.832031 55.621094 25.8125 55.890625 Z M 25.175781 66.414062 " fill-opacity="1" fill-rule="nonzero"/><path fill="#ffffff" d="M 74.160156 66.414062 L 72.21875 66.414062 L 71.574219 55.890625 C 71.558594 55.621094 71.765625 55.390625 72.035156 55.371094 C 72.304688 55.355469 72.535156 55.558594 72.554688 55.828125 L 73.136719 65.433594 L 73.234375 65.433594 L 73.820312 55.828125 C 73.835938 55.558594 74.066406 55.351562 74.339844 55.371094 C 74.609375 55.386719 74.816406 55.621094 74.796875 55.890625 Z M 74.160156 66.414062 " fill-opacity="1" fill-rule="nonzero"/><path fill="#ffffff" d="M 54.285156 66.414062 C 54.015625 66.414062 53.796875 66.191406 53.796875 65.921875 L 53.796875 54.050781 C 53.796875 53.78125 54.015625 53.5625 54.285156 53.5625 C 54.558594 53.5625 54.777344 53.78125 54.777344 54.050781 L 54.777344 65.921875 C 54.777344 66.191406 54.558594 66.414062 54.285156 66.414062 Z M 54.285156 66.414062 " fill-opacity="1" fill-rule="nonzero"/><path fill="#ffffff" d="M 66.375 66.414062 C 66.105469 66.414062 65.882812 66.191406 65.882812 65.921875 L 65.882812 54.050781 C 65.882812 53.78125 66.105469 53.5625 66.375 53.5625 C 66.644531 53.5625 66.863281 53.78125 66.863281 54.050781 L 66.863281 65.921875 C 66.863281 66.191406 66.644531 66.414062 66.375 66.414062 Z M 66.375 66.414062 " fill-opacity="1" fill-rule="nonzero"/><path fill="#ffffff" d="M 66.375 57.984375 L 54.285156 57.984375 C 54.015625 57.984375 53.796875 57.765625 53.796875 57.496094 C 53.796875 57.226562 54.015625 57.007812 54.285156 57.007812 L 66.375 57.007812 C 66.644531 57.007812 66.863281 57.226562 66.863281 57.496094 C 66.863281 57.765625 66.644531 57.984375 66.375 57.984375 Z M 66.375 57.984375 " fill-opacity="1" fill-rule="nonzero"/><path fill="#ffffff" d="M 66.375 61.433594 L 54.285156 61.433594 C 54.015625 61.433594 53.796875 61.210938 53.796875 60.941406 C 53.796875 60.671875 54.015625 60.453125 54.285156 60.453125 L 66.375 60.453125 C 66.644531 60.453125 66.863281 60.671875 66.863281 60.941406 C 66.863281 61.210938 66.644531 61.433594 66.375 61.433594 Z M 66.375 61.433594 " fill-opacity="1" fill-rule="nonzero"/><path fill="#ffffff" d="M 25.019531 61.433594 C 24.84375 61.433594 24.675781 61.339844 24.585938 61.175781 C 24.457031 60.941406 24.542969 60.644531 24.785156 60.515625 L 34.105469 55.429688 C 34.34375 55.300781 34.640625 55.390625 34.769531 55.625 C 34.902344 55.863281 34.816406 56.160156 34.574219 56.289062 L 25.25 61.375 C 25.175781 61.414062 25.097656 61.433594 25.019531 61.433594 Z M 25.019531 61.433594 " fill-opacity="1" fill-rule="nonzero"/><path fill="#ffffff" d="M 72.050781 61.433594 C 71.972656 61.433594 71.890625 61.414062 71.816406 61.371094 L 62.492188 56.289062 C 62.257812 56.15625 62.167969 55.859375 62.296875 55.625 C 62.425781 55.386719 62.726562 55.300781 62.960938 55.429688 L 72.285156 60.511719 C 72.523438 60.640625 72.609375 60.9375 72.480469 61.175781 C 72.394531 61.339844 72.226562 61.433594 72.050781 61.433594 Z M 72.050781 61.433594 " fill-opacity="1" fill-rule="nonzero"/><path fill="#ffffff" d="M 23.082031 28.582031 L 31.398438 28.582031 L 31.398438 29.5625 L 23.082031 29.5625 Z M 23.082031 28.582031 " fill-opacity="1" fill-rule="nonzero"/><path fill="#ffffff" d="M 69.101562 30.660156 L 74.308594 30.660156 L 74.308594 31.640625 L 69.101562 31.640625 Z M 69.101562 30.660156 " fill-opacity="1" fill-rule="nonzero"/><path fill="#ffffff" d="M 59.550781 30.660156 L 66.632812 30.660156 L 66.632812 31.640625 L 59.550781 31.640625 Z M 59.550781 30.660156 " fill-opacity="1" fill-rule="nonzero"/><path fill="#ffffff" d="M 46.117188 38.070312 L 52.53125 38.070312 L 52.53125 39.050781 L 46.117188 39.050781 Z M 46.117188 38.070312 " fill-opacity="1" fill-rule="nonzero"/><path fill="#ffffff" d="M 68.148438 38.070312 L 73.183594 38.070312 L 73.183594 39.050781 L 68.148438 39.050781 Z M 68.148438 38.070312 " fill-opacity="1" fill-rule="nonzero"/><path fill="#ffffff" d="M 23.703125 50.679688 L 46.117188 50.679688 L 46.117188 51.660156 L 23.703125 51.660156 Z M 23.703125 50.679688 " fill-opacity="1" fill-rule="nonzero"/><path fill="#ffffff" d="M 68.511719 50.679688 L 74.308594 50.679688 L 74.308594 51.660156 L 68.511719 51.660156 Z M 68.511719 50.679688 " fill-opacity="1" fill-rule="nonzero"/><path fill="#ffffff" d="M 90.054688 71.828125 L 83.007812 68.058594 C 80.996094 66.984375 78.722656 66.414062 76.4375 66.414062 L 21.621094 66.414062 C 19.335938 66.414062 17.066406 66.980469 15.050781 68.058594 L 8.007812 71.828125 L 7.542969 70.964844 L 14.585938 67.195312 C 16.742188 66.042969 19.175781 65.433594 21.621094 65.433594 L 76.4375 65.433594 C 78.886719 65.433594 81.316406 66.042969 83.472656 67.195312 L 90.515625 70.964844 Z M 90.054688 71.828125 " fill-opacity="1" fill-rule="nonzero"/><path fill="#ffffff" d="M 10.488281 70.121094 C 10.242188 70.121094 10.027344 69.933594 10 69.679688 L 9.789062 67.445312 C 8.550781 53.800781 10.046875 44.996094 11.523438 40.015625 C 13.140625 34.554688 15.050781 32.363281 15.128906 32.273438 L 16.507812 30.726562 L 15.96875 32.726562 C 15.925781 32.890625 11.683594 49.089844 16.210938 66.636719 C 16.277344 66.898438 16.121094 67.164062 15.859375 67.230469 C 15.597656 67.296875 15.328125 67.140625 15.261719 66.878906 C 11.777344 53.378906 13.414062 40.664062 14.429688 35.234375 C 13.820312 36.425781 13.097656 38.117188 12.433594 40.386719 C 11 45.28125 9.546875 53.929688 10.765625 67.351562 L 10.976562 69.585938 C 11.003906 69.855469 10.804688 70.09375 10.535156 70.121094 C 10.519531 70.121094 10.503906 70.121094 10.488281 70.121094 Z M 10.488281 70.121094 " fill-opacity="1" fill-rule="nonzero"/><path fill="#ffffff" d="M 12.78125 44.472656 L 11.347656 44.472656 C 11.078125 44.472656 10.859375 44.253906 10.859375 43.980469 C 10.859375 43.710938 11.078125 43.492188 11.347656 43.492188 L 12.78125 43.492188 C 13.054688 43.492188 13.273438 43.710938 13.273438 43.980469 C 13.273438 44.253906 13.054688 44.472656 12.78125 44.472656 Z M 12.78125 44.472656 " fill-opacity="1" fill-rule="nonzero"/><path fill="#ffffff" d="M 12.066406 48.761719 L 10.488281 48.761719 C 10.21875 48.761719 10 48.542969 10 48.273438 C 10 48 10.21875 47.78125 10.488281 47.78125 L 12.066406 47.78125 C 12.335938 47.78125 12.554688 48 12.554688 48.273438 C 12.554688 48.542969 12.335938 48.761719 12.066406 48.761719 Z M 12.066406 48.761719 " fill-opacity="1" fill-rule="nonzero"/><path fill="#ffffff" d="M 13.722656 53.292969 L 10 53.292969 C 9.730469 53.292969 9.511719 53.074219 9.511719 52.804688 C 9.511719 52.535156 9.730469 52.316406 10 52.316406 L 13.722656 52.316406 C 13.992188 52.316406 14.214844 52.535156 14.214844 52.804688 C 14.214844 53.074219 13.992188 53.292969 13.722656 53.292969 Z M 13.722656 53.292969 " fill-opacity="1" fill-rule="nonzero"/><path fill="#ffffff" d="M 12.496094 57.578125 L 9.863281 57.578125 C 9.59375 57.578125 9.375 57.359375 9.375 57.085938 C 9.375 56.816406 9.59375 56.597656 9.863281 56.597656 L 12.496094 56.597656 C 12.765625 56.597656 12.984375 56.816406 12.984375 57.085938 C 12.984375 57.359375 12.765625 57.578125 12.496094 57.578125 Z M 12.496094 57.578125 " fill-opacity="1" fill-rule="nonzero"/><path fill="#ffffff" d="M 12.496094 62.273438 L 10.058594 62.273438 C 9.789062 62.273438 9.566406 62.054688 9.566406 61.785156 C 9.566406 61.515625 9.789062 61.296875 10.058594 61.296875 L 12.496094 61.296875 C 12.765625 61.296875 12.984375 61.515625 12.984375 61.785156 C 12.984375 62.054688 12.765625 62.273438 12.496094 62.273438 Z M 12.496094 62.273438 " fill-opacity="1" fill-rule="nonzero"/><path fill="#ffffff" d="M 20.328125 37.324219 C 20.25 37.324219 20.171875 37.308594 20.101562 37.269531 C 18.761719 36.578125 16.5625 35.824219 14.867188 35.472656 C 14.601562 35.417969 14.429688 35.160156 14.484375 34.894531 C 14.539062 34.628906 14.800781 34.460938 15.066406 34.515625 C 16.863281 34.886719 19.121094 35.660156 20.550781 36.402344 C 20.792969 36.523438 20.886719 36.820312 20.761719 37.0625 C 20.675781 37.230469 20.503906 37.324219 20.328125 37.324219 Z M 20.328125 37.324219 " fill-opacity="1" fill-rule="nonzero"/><path fill="#ffffff" d="M 21.675781 35.609375 C 21.566406 35.609375 21.460938 35.574219 21.367188 35.503906 C 19.015625 33.625 16.070312 31.789062 16.042969 31.769531 C 15.8125 31.625 15.742188 31.324219 15.886719 31.097656 C 16.027344 30.867188 16.328125 30.796875 16.558594 30.941406 C 16.589844 30.960938 19.582031 32.828125 21.980469 34.738281 C 22.191406 34.90625 22.222656 35.214844 22.054688 35.425781 C 21.960938 35.546875 21.816406 35.609375 21.675781 35.609375 Z M 21.675781 35.609375 " fill-opacity="1" fill-rule="nonzero"/><g clip-path="url(#9943fd7d9c)"><path fill="#ffffff" d="M 2.648438 41.1875 L 3.027344 39.957031 C 5.207031 32.8125 15.769531 30.949219 16.21875 30.875 C 16.488281 30.828125 16.738281 31.007812 16.785156 31.273438 C 16.828125 31.539062 16.648438 31.792969 16.382812 31.839844 C 16.285156 31.855469 7.351562 33.433594 4.496094 38.941406 C 6.746094 37.640625 11.484375 35.058594 14.523438 34.433594 C 14.789062 34.378906 15.046875 34.546875 15.101562 34.8125 C 15.15625 35.078125 14.984375 35.335938 14.71875 35.390625 C 10.875 36.179688 3.820312 40.472656 3.75 40.515625 Z M 2.648438 41.1875 " fill-opacity="1" fill-rule="nonzero"/></g><g clip-path="url(#0041ff86bc)"><path fill="#ffffff" d="M 12.609375 32.546875 C 12.421875 32.546875 12.242188 32.441406 12.160156 32.257812 C 9.917969 27.214844 4.371094 24.488281 4.316406 24.460938 L 2.722656 23.691406 L 4.484375 23.53125 C 11.957031 22.863281 16.292969 30.785156 16.476562 31.121094 C 16.605469 31.359375 16.515625 31.65625 16.277344 31.785156 C 16.039062 31.910156 15.742188 31.820312 15.613281 31.582031 C 15.578125 31.511719 12.136719 25.242188 6.402344 24.535156 C 8.332031 25.78125 11.449219 28.230469 13.058594 31.859375 C 13.167969 32.105469 13.058594 32.394531 12.808594 32.503906 C 12.742188 32.535156 12.675781 32.546875 12.609375 32.546875 Z M 12.609375 32.546875 " fill-opacity="1" fill-rule="nonzero"/></g><path fill="#ffffff" d="M 16.300781 31.847656 C 16.257812 31.847656 16.214844 31.839844 16.171875 31.828125 C 15.910156 31.753906 15.757812 31.484375 15.832031 31.226562 C 15.859375 31.128906 18.308594 22.097656 14.21875 17.640625 C 14.605469 19.765625 15.066406 23.847656 13.886719 27.8125 C 13.808594 28.070312 13.535156 28.21875 13.277344 28.140625 C 13.019531 28.0625 12.867188 27.792969 12.945312 27.53125 C 14.527344 22.214844 12.960938 16.472656 12.945312 16.414062 L 12.574219 15.089844 L 13.703125 15.886719 C 19.839844 20.230469 16.902344 31.03125 16.777344 31.488281 C 16.710938 31.703125 16.515625 31.847656 16.300781 31.847656 Z M 16.300781 31.847656 " fill-opacity="1" fill-rule="nonzero"/><path fill="#ffffff" d="M 19.917969 33.890625 C 19.84375 33.890625 19.765625 33.875 19.695312 33.839844 C 19.453125 33.714844 19.359375 33.421875 19.480469 33.179688 C 19.832031 32.484375 21.371094 30.707031 22.257812 29.707031 C 22.4375 29.507812 22.75 29.488281 22.949219 29.667969 C 23.152344 29.847656 23.171875 30.15625 22.992188 30.359375 C 21.578125 31.949219 20.570312 33.199219 20.355469 33.625 C 20.269531 33.792969 20.09375 33.890625 19.917969 33.890625 Z M 19.917969 33.890625 " fill-opacity="1" fill-rule="nonzero"/><path fill="#ffffff" d="M 16.300781 31.847656 C 16.15625 31.847656 16.011719 31.78125 15.917969 31.65625 C 15.75 31.445312 15.785156 31.136719 16 30.972656 C 16.128906 30.871094 19.167969 28.507812 22.273438 27.152344 C 22.519531 27.046875 22.808594 27.15625 22.917969 27.40625 C 23.023438 27.652344 22.914062 27.941406 22.664062 28.050781 C 19.671875 29.355469 16.632812 31.714844 16.605469 31.738281 C 16.515625 31.8125 16.40625 31.847656 16.300781 31.847656 Z M 16.300781 31.847656 " fill-opacity="1" fill-rule="nonzero"/><path fill="#ffffff" d="M 82.449219 67.621094 C 81.179688 67.621094 79.910156 65.78125 78.671875 62.148438 C 77.492188 58.679688 76.492188 54 75.863281 48.976562 C 74.984375 41.976562 75.992188 35.605469 76.675781 32.433594 C 76.820312 31.753906 77.355469 31.261719 78.039062 31.175781 C 78.71875 31.089844 79.363281 31.4375 79.671875 32.058594 C 81.117188 34.96875 83.667969 40.890625 84.546875 47.890625 C 85.742188 57.421875 85.460938 67.257812 82.609375 67.613281 C 82.558594 67.617188 82.503906 67.621094 82.449219 67.621094 Z M 78.238281 32.140625 C 78.203125 32.140625 78.179688 32.140625 78.160156 32.144531 C 78.058594 32.15625 77.71875 32.230469 77.628906 32.632812 C 76.960938 35.746094 75.972656 41.996094 76.832031 48.851562 C 77.457031 53.8125 78.4375 58.421875 79.601562 61.832031 C 80.933594 65.742188 82.035156 66.691406 82.492188 66.636719 C 82.9375 66.582031 83.777344 65.386719 84.105469 61.265625 C 84.386719 57.675781 84.199219 52.96875 83.578125 48.003906 C 82.714844 41.148438 80.210938 35.339844 78.792969 32.488281 C 78.644531 32.1875 78.382812 32.140625 78.238281 32.140625 Z M 78.238281 32.140625 " fill-opacity="1" fill-rule="nonzero"/><path fill="#ffffff" d="M 82.550781 67.617188 C 82.308594 67.617188 82.09375 67.4375 82.0625 67.1875 L 79.28125 45.019531 C 79.246094 44.75 79.4375 44.503906 79.707031 44.472656 C 79.976562 44.4375 80.21875 44.628906 80.253906 44.894531 L 83.035156 67.066406 C 83.070312 67.332031 82.878906 67.578125 82.609375 67.613281 C 82.589844 67.613281 82.570312 67.617188 82.550781 67.617188 Z M 82.550781 67.617188 " fill-opacity="1" fill-rule="nonzero"/><path fill="#ffffff" d="M 29.460938 18.699219 C 29.363281 18.699219 29.261719 18.667969 29.175781 18.609375 C 26.816406 16.9375 25.410156 14.214844 25.410156 11.328125 C 25.410156 6.414062 29.417969 2.410156 34.34375 2.410156 C 38.308594 2.410156 41.839844 5.066406 42.929688 8.871094 C 43.003906 9.128906 42.855469 9.402344 42.597656 9.476562 C 42.335938 9.550781 42.066406 9.398438 41.988281 9.140625 C 41.019531 5.753906 37.875 3.390625 34.34375 3.390625 C 29.957031 3.390625 26.386719 6.953125 26.386719 11.332031 C 26.386719 13.902344 27.644531 16.324219 29.742188 17.8125 C 29.964844 17.96875 30.015625 18.273438 29.859375 18.496094 C 29.765625 18.625 29.613281 18.699219 29.460938 18.699219 Z M 29.460938 18.699219 " fill-opacity="1" fill-rule="nonzero"/><g fill="#ffffff" fill-opacity="1"><g transform="translate(99.376022, 48.397319)"><g><path d="M 8.28125 -22.355469 L 1.875 -22.355469 L 1.875 -21.640625 L 4.226562 -21.640625 L 4.226562 -0.714844 L 1.875 -0.714844 L 1.875 0 L 10.835938 0 L 10.835938 -0.714844 L 8.28125 -0.714844 L 8.28125 -18.707031 C 9.335938 -20.617188 11.109375 -21.910156 12.507812 -21.910156 C 12.847656 -21.910156 13.085938 -21.84375 13.152344 -21.808594 C 12.0625 -21.671875 11.246094 -20.683594 11.246094 -19.527344 C 11.246094 -18.164062 12.269531 -17.140625 13.632812 -17.140625 C 15.027344 -17.140625 16.050781 -18.230469 16.050781 -19.664062 C 16.050781 -21.367188 14.652344 -22.660156 12.746094 -22.660156 C 10.972656 -22.660156 9.234375 -21.433594 8.28125 -19.902344 Z M 8.28125 -22.355469 "/></g></g></g><g fill="#ffffff" fill-opacity="1"><g transform="translate(119.20832, 48.397319)"><g><path d="M 21.367188 -10.667969 L 21.367188 -12.234375 C 21.367188 -16.324219 20.277344 -18.402344 18.199219 -20.308594 C 16.5625 -21.808594 14.074219 -22.660156 11.894531 -22.660156 C 6.269531 -22.660156 2.386719 -18.4375 2.386719 -12.644531 L 2.386719 -9.917969 C 2.386719 -6.714844 3.101562 -4.601562 4.875 -2.65625 C 6.542969 -0.851562 9.066406 0.339844 12.097656 0.339844 C 16.085938 0.339844 19.152344 -1.773438 20.992188 -5.792969 L 20.34375 -6.101562 C 18.402344 -2.148438 15.777344 -0.375 12.199219 -0.375 C 9.542969 -0.375 7.871094 -1.636719 7.089844 -3.613281 C 6.507812 -5.078125 6.441406 -6.953125 6.441406 -9.472656 L 6.441406 -10.667969 Z M 17.34375 -11.382812 L 6.441406 -11.382812 L 6.441406 -14.039062 C 6.441406 -17.3125 6.984375 -18.980469 8.042969 -20.175781 C 9.03125 -21.296875 10.292969 -21.945312 11.894531 -21.945312 C 13.632812 -21.945312 15.0625 -21.164062 15.949219 -19.933594 C 17.003906 -18.503906 17.34375 -16.96875 17.34375 -13.765625 Z M 17.34375 -11.382812 "/></g></g></g><g fill="#ffffff" fill-opacity="1"><g transform="translate(146.059983, 48.397319)"><g><path d="M 25.523438 0 L 25.523438 -0.714844 L 23.242188 -0.714844 L 23.242188 -12.335938 C 23.242188 -14.007812 22.96875 -15.640625 22.492188 -16.867188 C 21.09375 -20.308594 17.617188 -22.660156 13.734375 -22.660156 C 9.847656 -22.660156 6.371094 -20.308594 4.976562 -16.867188 C 4.5 -15.640625 4.226562 -14.007812 4.226562 -12.335938 L 4.226562 -0.714844 L 1.875 -0.714844 L 1.875 0 L 10.5625 0 L 10.5625 -0.714844 L 8.28125 -0.714844 L 8.28125 -14.992188 C 8.28125 -19.355469 10.5625 -21.945312 13.734375 -21.945312 C 16.902344 -21.945312 19.1875 -19.355469 19.1875 -14.992188 L 19.1875 -0.714844 L 16.902344 -0.714844 L 16.902344 0 Z M 25.523438 0 "/></g></g></g><g fill="#ffffff" fill-opacity="1"><g transform="translate(177.239122, 48.397319)"><g><path d="M 11.925781 -2.863281 C 11.824219 -1.667969 11.042969 -0.921875 10.019531 -0.921875 C 9.097656 -0.921875 8.109375 -1.566406 8.109375 -3.203125 L 8.109375 -21.640625 L 11.960938 -21.640625 L 11.960938 -22.355469 L 8.109375 -22.355469 L 8.109375 -31.351562 L 4.054688 -31.351562 L 4.054688 -22.355469 L 1.703125 -22.355469 L 1.703125 -21.640625 L 4.054688 -21.640625 L 4.054688 -5.589844 C 4.054688 -4.125 4.191406 -2.898438 4.632812 -1.976562 C 5.417969 -0.375 6.816406 0.339844 8.960938 0.339844 C 11.109375 0.339844 12.574219 -1.054688 12.675781 -2.863281 Z M 11.925781 -2.863281 "/></g></g></g><g fill="#ffffff" fill-opacity="1"><g transform="translate(194.720271, 48.397319)"><g/></g></g><g fill="#ffffff" fill-opacity="1"><g transform="translate(215.40444, 48.397319)"><g><path d="M 17.140625 -4.804688 C 16.730469 -2.417969 14.824219 -0.375 12.03125 -0.375 C 9.710938 -0.375 8.078125 -1.601562 7.257812 -3.304688 C 6.578125 -4.738281 6.441406 -6.101562 6.441406 -9.40625 L 6.441406 -14.3125 C 6.441406 -16.867188 6.847656 -18.640625 7.703125 -19.765625 C 8.792969 -21.230469 10.019531 -21.945312 12.03125 -21.945312 C 14.414062 -21.945312 16.800781 -20.039062 16.800781 -17.449219 L 16.800781 -17.140625 L 17.515625 -17.140625 L 17.515625 -22.59375 L 16.800781 -22.59375 L 16.800781 -20.242188 C 15.742188 -21.707031 14.007812 -22.660156 11.621094 -22.660156 C 8.859375 -22.660156 6.371094 -21.367188 4.769531 -19.527344 C 3.203125 -17.753906 2.386719 -15.640625 2.386719 -12.335938 L 2.386719 -9.949219 C 2.386719 -6.78125 3.101562 -4.703125 4.738281 -2.828125 C 6.542969 -0.75 9.335938 0.375 11.996094 0.375 C 15.027344 0.375 17.414062 -1.667969 17.925781 -4.804688 Z M 17.140625 -4.804688 "/></g></g></g><g fill="#ffffff" fill-opacity="1"><g transform="translate(238.371599, 48.397319)"><g><path d="M 21.230469 -12.300781 C 21.230469 -15.574219 20.515625 -17.6875 18.640625 -19.730469 C 16.902344 -21.605469 14.246094 -22.660156 11.722656 -22.660156 C 7.597656 -22.660156 3.886719 -20.039062 2.726562 -16.222656 C 2.316406 -14.925781 2.214844 -13.871094 2.214844 -12.402344 L 2.214844 -10.019531 C 2.214844 -6.746094 2.929688 -4.632812 4.804688 -2.589844 C 6.542969 -0.714844 9.199219 0.339844 11.722656 0.339844 C 15.847656 0.339844 19.558594 -2.28125 20.71875 -6.101562 C 21.128906 -7.394531 21.230469 -8.453125 21.230469 -9.917969 Z M 17.175781 -8.28125 C 17.175781 -5.007812 16.628906 -3.339844 15.574219 -2.148438 C 14.585938 -1.023438 13.324219 -0.375 11.722656 -0.375 C 9.984375 -0.375 8.554688 -1.160156 7.667969 -2.386719 C 6.609375 -3.816406 6.269531 -5.351562 6.269531 -8.554688 L 6.269531 -14.039062 C 6.269531 -17.3125 6.816406 -18.980469 7.871094 -20.175781 C 8.859375 -21.296875 10.121094 -21.945312 11.722656 -21.945312 C 13.460938 -21.945312 14.890625 -21.164062 15.777344 -19.933594 C 16.835938 -18.503906 17.175781 -16.96875 17.175781 -13.765625 Z M 17.175781 -8.28125 "/></g></g></g><g fill="#ffffff" fill-opacity="1"><g transform="translate(265.598089, 48.397319)"><g><path d="M 25.523438 0 L 25.523438 -0.714844 L 23.242188 -0.714844 L 23.242188 -12.335938 C 23.242188 -14.007812 22.96875 -15.640625 22.492188 -16.867188 C 21.09375 -20.308594 17.617188 -22.660156 13.734375 -22.660156 C 9.847656 -22.660156 6.371094 -20.308594 4.976562 -16.867188 C 4.5 -15.640625 4.226562 -14.007812 4.226562 -12.335938 L 4.226562 -0.714844 L 1.875 -0.714844 L 1.875 0 L 10.5625 0 L 10.5625 -0.714844 L 8.28125 -0.714844 L 8.28125 -14.992188 C 8.28125 -19.355469 10.5625 -21.945312 13.734375 -21.945312 C 16.902344 -21.945312 19.1875 -19.355469 19.1875 -14.992188 L 19.1875 -0.714844 L 16.902344 -0.714844 L 16.902344 0 Z M 25.523438 0 "/></g></g></g><g fill="#ffffff" fill-opacity="1"><g transform="translate(296.777236, 48.397319)"><g><path d="M 6.441406 -13.5625 C 6.441406 -16.117188 6.476562 -18.09375 7.835938 -19.933594 C 8.554688 -20.890625 9.917969 -21.945312 11.859375 -21.945312 C 14.074219 -21.945312 16.324219 -20.480469 17.34375 -17.957031 L 17.34375 -8.28125 C 17.34375 -5.007812 16.800781 -3.339844 15.742188 -2.148438 C 14.753906 -1.023438 13.496094 -0.375 11.894531 -0.375 C 10.15625 -0.375 8.722656 -1.160156 7.835938 -2.386719 C 6.78125 -3.816406 6.441406 -5.351562 6.441406 -8.554688 Z M 21.402344 -30.636719 L 23.753906 -30.636719 L 23.753906 -31.351562 L 17.34375 -31.351562 L 17.34375 -19.492188 C 16.289062 -21.296875 14.109375 -22.660156 11.6875 -22.660156 C 9.03125 -22.660156 6.476562 -21.402344 4.839844 -19.558594 C 3.203125 -17.71875 2.386719 -15.367188 2.386719 -12.402344 L 2.386719 -10.019531 C 2.386719 -6.746094 3.101562 -4.632812 4.976562 -2.589844 C 6.714844 -0.714844 9.371094 0.339844 11.894531 0.339844 C 16.015625 0.339844 19.730469 -2.28125 20.890625 -6.101562 C 21.296875 -7.394531 21.402344 -8.453125 21.402344 -9.917969 Z M 21.402344 -30.636719 "/></g></g></g><g fill="#ffffff" fill-opacity="1"><g transform="translate(324.651147, 48.397319)"><g><path d="M 21.230469 -12.300781 C 21.230469 -15.574219 20.515625 -17.6875 18.640625 -19.730469 C 16.902344 -21.605469 14.246094 -22.660156 11.722656 -22.660156 C 7.597656 -22.660156 3.886719 -20.039062 2.726562 -16.222656 C 2.316406 -14.925781 2.214844 -13.871094 2.214844 -12.402344 L 2.214844 -10.019531 C 2.214844 -6.746094 2.929688 -4.632812 4.804688 -2.589844 C 6.542969 -0.714844 9.199219 0.339844 11.722656 0.339844 C 15.847656 0.339844 19.558594 -2.28125 20.71875 -6.101562 C 21.128906 -7.394531 21.230469 -8.453125 21.230469 -9.917969 Z M 17.175781 -8.28125 C 17.175781 -5.007812 16.628906 -3.339844 15.574219 -2.148438 C 14.585938 -1.023438 13.324219 -0.375 11.722656 -0.375 C 9.984375 -0.375 8.554688 -1.160156 7.667969 -2.386719 C 6.609375 -3.816406 6.269531 -5.351562 6.269531 -8.554688 L 6.269531 -14.039062 C 6.269531 -17.3125 6.816406 -18.980469 7.871094 -20.175781 C 8.859375 -21.296875 10.121094 -21.945312 11.722656 -21.945312 C 13.460938 -21.945312 14.890625 -21.164062 15.777344 -19.933594 C 16.835938 -18.503906 17.175781 -16.96875 17.175781 -13.765625 Z M 17.175781 -8.28125 "/></g></g></g><g fill="#ffffff" fill-opacity="1"><g transform="translate(351.877624, 48.397319)"><g><path d="M 8.28125 -22.355469 L 1.875 -22.355469 L 1.875 -21.640625 L 4.226562 -21.640625 L 4.226562 -0.714844 L 1.875 -0.714844 L 1.875 0 L 10.835938 0 L 10.835938 -0.714844 L 8.28125 -0.714844 L 8.28125 -18.707031 C 9.335938 -20.617188 11.109375 -21.910156 12.507812 -21.910156 C 12.847656 -21.910156 13.085938 -21.84375 13.152344 -21.808594 C 12.0625 -21.671875 11.246094 -20.683594 11.246094 -19.527344 C 11.246094 -18.164062 12.269531 -17.140625 13.632812 -17.140625 C 15.027344 -17.140625 16.050781 -18.230469 16.050781 -19.664062 C 16.050781 -21.367188 14.652344 -22.660156 12.746094 -22.660156 C 10.972656 -22.660156 9.234375 -21.433594 8.28125 -19.902344 Z M 8.28125 -22.355469 "/></g></g></g></svg>