<svg xmlns="http://www.w3.org/2000/svg" xmlns:xlink="http://www.w3.org/1999/xlink" width="500" zoomAndPan="magnify" viewBox="0 0 375 299.999988" height="400" preserveAspectRatio="xMidYMid meet" version="1.0"><defs><clipPath id="c4ca96e503"><path d="M 4.722656 282 L 67 282 L 67 290.257812 L 4.722656 290.257812 Z M 4.722656 282 " clip-rule="nonzero"/></clipPath><clipPath id="b6c6de30cd"><path d="M 121 282 L 184 282 L 184 290.257812 L 121 290.257812 Z M 121 282 " clip-rule="nonzero"/></clipPath><clipPath id="a78ce728ee"><path d="M 307 282 L 369.972656 282 L 369.972656 290.257812 L 307 290.257812 Z M 307 282 " clip-rule="nonzero"/></clipPath><clipPath id="7768a2926b"><path d="M 183 9.757812 L 188 9.757812 L 188 25 L 183 25 Z M 183 9.757812 " clip-rule="nonzero"/></clipPath><clipPath id="e4698664b3"><path d="M 4.722656 124 L 61 124 L 61 166 L 4.722656 166 Z M 4.722656 124 " clip-rule="nonzero"/></clipPath></defs><path fill="#000000" d="M 293.65625 85.636719 C 292.59375 85.636719 291.730469 84.773438 291.730469 83.710938 C 291.730469 78.207031 296.203125 73.734375 301.699219 73.734375 C 302.113281 73.734375 302.539062 73.753906 302.953125 73.808594 C 304.007812 73.941406 304.753906 74.902344 304.625 75.957031 C 304.492188 77.015625 303.53125 77.769531 302.476562 77.628906 C 302.222656 77.601562 301.960938 77.585938 301.699219 77.585938 C 298.328125 77.585938 295.578125 80.328125 295.578125 83.710938 C 295.578125 84.773438 294.71875 85.636719 293.65625 85.636719 Z M 293.65625 85.636719 " fill-opacity="1" fill-rule="nonzero"/><path fill="#000000" d="M 302.699219 78.125 C 301.636719 78.125 300.773438 77.261719 300.773438 76.199219 C 300.773438 68.292969 307.203125 61.859375 315.097656 61.859375 C 321.21875 61.859375 326.667969 65.75 328.652344 71.542969 C 329 72.554688 328.460938 73.648438 327.460938 73.996094 C 326.453125 74.339844 325.359375 73.800781 325.011719 72.800781 C 323.558594 68.5625 319.578125 65.71875 315.097656 65.71875 C 309.328125 65.71875 304.625 70.425781 304.625 76.207031 C 304.625 77.261719 303.769531 78.125 302.699219 78.125 Z M 302.699219 78.125 " fill-opacity="1" fill-rule="nonzero"/><path fill="#000000" d="M 338.273438 85.605469 C 338.160156 85.605469 338.042969 85.597656 337.921875 85.574219 C 336.875 85.382812 336.179688 84.378906 336.375 83.332031 C 336.457031 82.863281 336.503906 82.375 336.503906 81.882812 C 336.503906 77.5 332.941406 73.941406 328.570312 73.941406 C 324.835938 73.941406 321.65625 76.476562 320.832031 80.113281 C 320.59375 81.152344 319.570312 81.796875 318.53125 81.558594 C 317.492188 81.320312 316.847656 80.289062 317.085938 79.257812 C 318.316406 73.855469 323.042969 70.089844 328.578125 70.089844 C 335.074219 70.089844 340.359375 75.382812 340.359375 81.882812 C 340.359375 82.601562 340.296875 83.324219 340.167969 84.023438 C 340 84.949219 339.191406 85.605469 338.273438 85.605469 Z M 338.273438 85.605469 " fill-opacity="1" fill-rule="nonzero"/><path fill="#000000" d="M 293.65625 85.636719 L 282.570312 85.636719 C 281.511719 85.636719 280.648438 84.773438 280.648438 83.710938 C 280.648438 82.644531 281.511719 81.78125 282.570312 81.78125 L 293.65625 81.78125 C 294.71875 81.78125 295.578125 82.644531 295.578125 83.710938 C 295.578125 84.773438 294.71875 85.636719 293.65625 85.636719 Z M 293.65625 85.636719 " fill-opacity="1" fill-rule="nonzero"/><path fill="#000000" d="M 349.519531 85.636719 L 338.4375 85.636719 C 337.375 85.636719 336.511719 84.773438 336.511719 83.710938 C 336.511719 82.644531 337.375 81.78125 338.4375 81.78125 L 349.519531 81.78125 C 350.582031 81.78125 351.445312 82.644531 351.445312 83.710938 C 351.445312 84.773438 350.582031 85.636719 349.519531 85.636719 Z M 349.519531 85.636719 " fill-opacity="1" fill-rule="nonzero"/><path fill="#000000" d="M 339.667969 90.898438 L 293.65625 90.898438 C 292.59375 90.898438 291.730469 90.035156 291.730469 88.972656 C 291.730469 87.90625 292.59375 87.046875 293.65625 87.046875 L 339.667969 87.046875 C 340.730469 87.046875 341.589844 87.90625 341.589844 88.972656 C 341.589844 90.035156 340.730469 90.898438 339.667969 90.898438 Z M 339.667969 90.898438 " fill-opacity="1" fill-rule="nonzero"/><path fill="#000000" d="M 43.800781 34.132812 C 42.738281 34.132812 41.875 33.273438 41.875 32.207031 C 41.875 26.707031 46.347656 22.230469 51.84375 22.230469 C 52.265625 22.230469 52.691406 22.253906 53.097656 22.308594 C 54.152344 22.441406 54.898438 23.402344 54.769531 24.457031 C 54.636719 25.511719 53.675781 26.261719 52.621094 26.128906 C 52.367188 26.097656 52.105469 26.082031 51.84375 26.082031 C 48.472656 26.082031 45.722656 28.828125 45.722656 32.207031 C 45.722656 33.273438 44.863281 34.132812 43.800781 34.132812 Z M 43.800781 34.132812 " fill-opacity="1" fill-rule="nonzero"/><path fill="#000000" d="M 52.84375 26.621094 C 51.78125 26.621094 50.917969 25.761719 50.917969 24.695312 C 50.917969 16.792969 57.347656 10.359375 65.242188 10.359375 C 71.363281 10.359375 76.8125 14.25 78.796875 20.042969 C 79.144531 21.054688 78.605469 22.148438 77.605469 22.492188 C 76.597656 22.839844 75.503906 22.300781 75.15625 21.300781 C 73.703125 17.0625 69.722656 14.21875 65.242188 14.21875 C 59.464844 14.21875 54.769531 18.925781 54.769531 24.703125 C 54.769531 25.761719 53.90625 26.621094 52.84375 26.621094 Z M 52.84375 26.621094 " fill-opacity="1" fill-rule="nonzero"/><path fill="#000000" d="M 88.417969 34.105469 C 88.304688 34.105469 88.1875 34.097656 88.066406 34.074219 C 87.019531 33.878906 86.324219 32.878906 86.519531 31.832031 C 86.601562 31.359375 86.648438 30.875 86.648438 30.382812 C 86.648438 26 83.085938 22.441406 78.714844 22.441406 C 74.980469 22.441406 71.800781 24.972656 70.976562 28.609375 C 70.738281 29.652344 69.707031 30.296875 68.675781 30.058594 C 67.636719 29.820312 66.992188 28.789062 67.230469 27.753906 C 68.460938 22.355469 73.179688 18.585938 78.722656 18.585938 C 85.21875 18.585938 90.503906 23.878906 90.503906 30.382812 C 90.503906 31.097656 90.441406 31.824219 90.3125 32.523438 C 90.144531 33.457031 89.328125 34.105469 88.417969 34.105469 Z M 88.417969 34.105469 " fill-opacity="1" fill-rule="nonzero"/><path fill="#000000" d="M 43.800781 34.132812 L 32.714844 34.132812 C 31.65625 34.132812 30.792969 33.273438 30.792969 32.207031 C 30.792969 31.144531 31.65625 30.28125 32.714844 30.28125 L 43.800781 30.28125 C 44.863281 30.28125 45.722656 31.144531 45.722656 32.207031 C 45.722656 33.273438 44.863281 34.132812 43.800781 34.132812 Z M 43.800781 34.132812 " fill-opacity="1" fill-rule="nonzero"/><path fill="#000000" d="M 99.65625 34.132812 L 88.574219 34.132812 C 87.511719 34.132812 86.648438 33.273438 86.648438 32.207031 C 86.648438 31.144531 87.511719 30.28125 88.574219 30.28125 L 99.65625 30.28125 C 100.71875 30.28125 101.582031 31.144531 101.582031 32.207031 C 101.582031 33.273438 100.726562 34.132812 99.65625 34.132812 Z M 99.65625 34.132812 " fill-opacity="1" fill-rule="nonzero"/><g clip-path="url(#c4ca96e503)"><path fill="#000000" d="M 55.222656 290.273438 C 52.066406 290.273438 50.410156 288.804688 49.085938 287.625 C 47.957031 286.613281 47.210938 285.953125 45.507812 285.953125 C 43.816406 285.953125 43.070312 286.613281 41.9375 287.625 C 40.613281 288.804688 38.964844 290.273438 35.804688 290.273438 C 32.648438 290.273438 30.992188 288.804688 29.667969 287.625 C 28.539062 286.613281 27.789062 285.953125 26.097656 285.953125 C 24.402344 285.953125 23.65625 286.613281 22.527344 287.625 C 21.203125 288.804688 19.554688 290.273438 16.390625 290.273438 C 13.234375 290.273438 11.589844 288.804688 10.265625 287.625 C 9.132812 286.613281 8.386719 285.953125 6.695312 285.953125 C 5.632812 285.953125 4.769531 285.089844 4.769531 284.027344 C 4.769531 282.964844 5.632812 282.101562 6.695312 282.101562 C 9.847656 282.101562 11.496094 283.570312 12.820312 284.75 C 13.953125 285.761719 14.699219 286.421875 16.390625 286.421875 C 18.085938 286.421875 18.832031 285.761719 19.964844 284.75 C 21.285156 283.570312 22.933594 282.101562 26.097656 282.101562 C 29.253906 282.101562 30.90625 283.570312 32.230469 284.75 C 33.363281 285.761719 34.109375 286.421875 35.804688 286.421875 C 37.496094 286.421875 38.242188 285.761719 39.375 284.75 C 40.699219 283.570312 42.34375 282.101562 45.507812 282.101562 C 48.664062 282.101562 50.320312 283.570312 51.644531 284.75 C 52.773438 285.761719 53.519531 286.421875 55.222656 286.421875 C 56.921875 286.421875 57.664062 285.761719 58.800781 284.75 C 60.125 283.570312 61.773438 282.101562 64.9375 282.101562 C 65.996094 282.101562 66.859375 282.964844 66.859375 284.027344 C 66.859375 285.089844 65.996094 285.953125 64.9375 285.953125 C 63.242188 285.953125 62.496094 286.613281 61.355469 287.625 C 60.03125 288.8125 58.386719 290.273438 55.222656 290.273438 Z M 55.222656 290.273438 " fill-opacity="1" fill-rule="nonzero"/></g><g clip-path="url(#b6c6de30cd)"><path fill="#000000" d="M 171.539062 290.273438 C 168.382812 290.273438 166.726562 288.804688 165.402344 287.625 C 164.269531 286.613281 163.523438 285.953125 161.824219 285.953125 C 160.128906 285.953125 159.382812 286.613281 158.253906 287.625 C 156.929688 288.804688 155.28125 290.273438 152.117188 290.273438 C 148.960938 290.273438 147.308594 288.804688 145.984375 287.625 C 144.851562 286.613281 144.105469 285.953125 142.414062 285.953125 C 140.71875 285.953125 139.972656 286.613281 138.839844 287.625 C 137.515625 288.804688 135.871094 290.273438 132.714844 290.273438 C 129.558594 290.273438 127.910156 288.804688 126.585938 287.625 C 125.457031 286.613281 124.710938 285.953125 123.015625 285.953125 C 121.953125 285.953125 121.09375 285.089844 121.09375 284.027344 C 121.09375 282.964844 121.953125 282.101562 123.015625 282.101562 C 126.171875 282.101562 127.820312 283.570312 129.144531 284.75 C 130.273438 285.761719 131.019531 286.421875 132.714844 286.421875 C 134.40625 286.421875 135.152344 285.761719 136.285156 284.75 C 137.609375 283.570312 139.257812 282.101562 142.421875 282.101562 C 145.574219 282.101562 147.230469 283.570312 148.554688 284.75 C 149.6875 285.761719 150.433594 286.421875 152.125 286.421875 C 153.820312 286.421875 154.566406 285.761719 155.695312 284.75 C 157.019531 283.570312 158.667969 282.101562 161.832031 282.101562 C 164.988281 282.101562 166.640625 283.570312 167.964844 284.75 C 169.097656 285.761719 169.84375 286.421875 171.546875 286.421875 C 173.246094 286.421875 173.984375 285.761719 175.125 284.75 C 176.449219 283.570312 178.09375 282.101562 181.257812 282.101562 C 182.320312 282.101562 183.183594 282.964844 183.183594 284.027344 C 183.183594 285.089844 182.320312 285.953125 181.257812 285.953125 C 179.566406 285.953125 178.820312 286.613281 177.679688 287.625 C 176.347656 288.8125 174.699219 290.273438 171.539062 290.273438 Z M 171.539062 290.273438 " fill-opacity="1" fill-rule="nonzero"/></g><g clip-path="url(#a78ce728ee)"><path fill="#000000" d="M 358.292969 290.273438 C 355.136719 290.273438 353.484375 288.804688 352.160156 287.625 C 351.027344 286.613281 350.28125 285.953125 348.582031 285.953125 C 346.886719 285.953125 346.140625 286.613281 345.007812 287.625 C 343.683594 288.804688 342.039062 290.273438 338.882812 290.273438 C 335.726562 290.273438 334.070312 288.804688 332.746094 287.625 C 331.617188 286.613281 330.871094 285.953125 329.175781 285.953125 C 327.484375 285.953125 326.738281 286.613281 325.605469 287.625 C 324.28125 288.804688 322.632812 290.273438 319.480469 290.273438 C 316.324219 290.273438 314.675781 288.804688 313.351562 287.625 C 312.21875 286.613281 311.472656 285.953125 309.78125 285.953125 C 308.71875 285.953125 307.855469 285.089844 307.855469 284.027344 C 307.855469 282.964844 308.71875 282.101562 309.78125 282.101562 C 312.9375 282.101562 314.582031 283.570312 315.90625 284.75 C 317.039062 285.761719 317.785156 286.421875 319.480469 286.421875 C 321.171875 286.421875 321.917969 285.761719 323.050781 284.75 C 324.375 283.570312 326.019531 282.101562 329.175781 282.101562 C 332.332031 282.101562 333.988281 283.570312 335.3125 284.75 C 336.441406 285.761719 337.1875 286.421875 338.882812 286.421875 C 340.574219 286.421875 341.324219 285.761719 342.453125 284.75 C 343.777344 283.570312 345.425781 282.101562 348.589844 282.101562 C 351.742188 282.101562 353.398438 283.570312 354.722656 284.75 C 355.855469 285.761719 356.601562 286.421875 358.300781 286.421875 C 360.003906 286.421875 360.742188 285.761719 361.878906 284.75 C 363.203125 283.570312 364.851562 282.101562 368.015625 282.101562 C 369.078125 282.101562 369.9375 282.964844 369.9375 284.027344 C 369.9375 285.089844 369.078125 285.953125 368.015625 285.953125 C 366.320312 285.953125 365.574219 286.613281 364.4375 287.625 C 363.097656 288.8125 361.449219 290.273438 358.292969 290.273438 Z M 358.292969 290.273438 " fill-opacity="1" fill-rule="nonzero"/></g><path fill="#000000" d="M 255.070312 258.378906 L 207.605469 258.378906 C 206.542969 258.378906 205.679688 257.515625 205.679688 256.453125 C 205.679688 255.390625 206.542969 254.527344 207.605469 254.527344 L 255.070312 254.527344 C 256.132812 254.527344 256.996094 255.390625 256.996094 256.453125 C 256.996094 257.515625 256.132812 258.378906 255.070312 258.378906 Z M 255.070312 258.378906 " fill-opacity="1" fill-rule="nonzero"/><path fill="#000000" d="M 83.269531 138.800781 C 82.207031 138.800781 81.34375 137.9375 81.34375 136.875 L 81.34375 104.5625 C 81.34375 103.5 82.207031 102.636719 83.269531 102.636719 C 84.332031 102.636719 85.195312 103.5 85.195312 104.5625 L 85.195312 136.875 C 85.195312 137.9375 84.332031 138.800781 83.269531 138.800781 Z M 83.269531 138.800781 " fill-opacity="1" fill-rule="nonzero"/><path fill="#000000" d="M 185.0625 217.664062 L 81.34375 217.664062 L 81.34375 165.0625 C 81.34375 164 82.207031 163.136719 83.269531 163.136719 C 84.332031 163.136719 85.195312 164 85.195312 165.0625 L 85.195312 213.8125 L 185.0625 213.8125 C 186.121094 213.8125 186.984375 214.675781 186.984375 215.738281 C 186.984375 216.800781 186.121094 217.664062 185.0625 217.664062 Z M 185.0625 217.664062 " fill-opacity="1" fill-rule="nonzero"/><path fill="#000000" d="M 288.769531 217.664062 L 185.0625 217.664062 C 184 217.664062 183.136719 216.800781 183.136719 215.738281 C 183.136719 214.675781 184 213.8125 185.0625 213.8125 L 284.925781 213.8125 L 284.925781 105.140625 C 284.925781 104.078125 285.789062 103.214844 286.851562 103.214844 C 287.914062 103.214844 288.777344 104.078125 288.777344 105.140625 L 288.777344 217.664062 Z M 288.769531 217.664062 " fill-opacity="1" fill-rule="nonzero"/><path fill="#000000" d="M 148.117188 115.332031 L 221.996094 115.332031 L 221.996094 127.050781 L 148.117188 127.050781 Z M 148.117188 115.332031 " fill-opacity="1" fill-rule="nonzero"/><path fill="#000000" d="M 169.976562 166.988281 L 59.933594 166.988281 L 82.269531 134.949219 L 169.976562 134.949219 Z M 67.3125 163.136719 L 166.125 163.136719 L 166.125 138.800781 L 84.277344 138.800781 Z M 67.3125 163.136719 " fill-opacity="1" fill-rule="nonzero"/><path fill="#000000" d="M 169.976562 197.710938 L 91.757812 197.710938 L 91.757812 163.136719 L 169.976562 163.136719 Z M 95.609375 193.859375 L 166.125 193.859375 L 166.125 166.988281 L 95.609375 166.988281 Z M 95.609375 193.859375 " fill-opacity="1" fill-rule="nonzero"/><path fill="#000000" d="M 130.867188 197.710938 C 129.804688 197.710938 128.941406 196.847656 128.941406 195.785156 L 128.941406 165.0625 C 128.941406 164 129.804688 163.136719 130.867188 163.136719 C 131.929688 163.136719 132.792969 164 132.792969 165.0625 L 132.792969 195.785156 C 132.792969 196.847656 131.929688 197.710938 130.867188 197.710938 Z M 130.867188 197.710938 " fill-opacity="1" fill-rule="nonzero"/><path fill="#000000" d="M 256.996094 217.664062 L 205.679688 217.664062 L 205.679688 134.949219 L 256.996094 134.949219 Z M 209.527344 213.8125 L 253.148438 213.8125 L 253.148438 138.800781 L 209.527344 138.800781 Z M 209.527344 213.8125 " fill-opacity="1" fill-rule="nonzero"/><path fill="#000000" d="M 244.289062 170.925781 L 248.136719 170.925781 L 248.136719 181.695312 L 244.289062 181.695312 Z M 244.289062 170.925781 " fill-opacity="1" fill-rule="nonzero"/><path fill="#000000" d="M 77.980469 142.535156 L 168.050781 142.535156 L 168.050781 146.386719 L 77.980469 146.386719 Z M 77.980469 142.535156 " fill-opacity="1" fill-rule="nonzero"/><path fill="#000000" d="M 70.800781 152.835938 L 168.050781 152.835938 L 168.050781 156.6875 L 70.800781 156.6875 Z M 70.800781 152.835938 " fill-opacity="1" fill-rule="nonzero"/><path fill="#000000" d="M 304.625 109.210938 L 298.851562 109.210938 C 292.214844 109.210938 288.851562 107.953125 285.597656 106.734375 C 282.527344 105.589844 279.632812 104.507812 273.691406 104.507812 C 267.746094 104.507812 264.847656 105.589844 261.78125 106.734375 C 258.527344 107.953125 255.171875 109.210938 248.527344 109.210938 C 241.894531 109.210938 238.53125 107.953125 235.273438 106.734375 C 232.210938 105.589844 229.308594 104.507812 223.367188 104.507812 C 217.425781 104.507812 214.53125 105.589844 211.460938 106.734375 C 208.207031 107.953125 204.847656 109.210938 198.207031 109.210938 C 191.566406 109.210938 188.207031 107.953125 184.953125 106.734375 C 181.890625 105.589844 178.988281 104.507812 173.046875 104.507812 C 167.105469 104.507812 164.210938 105.589844 161.140625 106.734375 C 157.882812 107.953125 154.527344 109.210938 147.886719 109.210938 C 141.25 109.210938 137.886719 107.953125 134.636719 106.734375 C 131.574219 105.589844 128.671875 104.507812 122.730469 104.507812 C 116.789062 104.507812 113.894531 105.589844 110.824219 106.734375 C 107.570312 107.953125 104.210938 109.210938 97.570312 109.210938 C 90.9375 109.210938 87.570312 107.953125 84.316406 106.734375 C 81.253906 105.589844 78.351562 104.507812 72.410156 104.507812 L 66.367188 104.507812 L 185.675781 19.859375 Z M 223.375 100.65625 C 230.011719 100.65625 233.375 101.914062 236.628906 103.128906 C 239.691406 104.277344 242.59375 105.355469 248.535156 105.355469 C 254.480469 105.355469 257.378906 104.277344 260.445312 103.128906 C 263.699219 101.914062 267.054688 100.65625 273.699219 100.65625 C 280.339844 100.65625 283.695312 101.914062 286.953125 103.128906 C 288.621094 103.753906 290.238281 104.355469 292.316406 104.78125 L 185.613281 24.628906 L 77.980469 101.011719 C 81.253906 101.472656 83.492188 102.304688 85.695312 103.128906 C 88.757812 104.277344 91.660156 105.355469 97.601562 105.355469 C 103.542969 105.355469 106.4375 104.277344 109.507812 103.128906 C 112.765625 101.914062 116.121094 100.65625 122.761719 100.65625 C 129.398438 100.65625 132.761719 101.914062 136.007812 103.128906 C 139.070312 104.277344 141.972656 105.355469 147.914062 105.355469 C 153.859375 105.355469 156.75 104.277344 159.824219 103.128906 C 163.078125 101.914062 166.433594 100.65625 173.078125 100.65625 C 179.710938 100.65625 183.074219 101.914062 186.332031 103.128906 C 189.394531 104.277344 192.296875 105.355469 198.238281 105.355469 C 204.179688 105.355469 207.074219 104.277344 210.144531 103.128906 C 213.378906 101.914062 216.742188 100.65625 223.375 100.65625 Z M 223.375 100.65625 " fill-opacity="1" fill-rule="nonzero"/><g clip-path="url(#7768a2926b)"><path fill="#000000" d="M 185.644531 24.171875 C 184.582031 24.171875 183.722656 23.308594 183.722656 22.246094 L 183.722656 11.683594 C 183.722656 10.621094 184.582031 9.757812 185.644531 9.757812 C 186.707031 9.757812 187.570312 10.621094 187.570312 11.683594 L 187.570312 22.246094 C 187.570312 23.308594 186.707031 24.171875 185.644531 24.171875 Z M 185.644531 24.171875 " fill-opacity="1" fill-rule="nonzero"/></g><path fill="#000000" d="M 185.644531 87.492188 C 173.9375 87.492188 164.417969 77.960938 164.417969 66.246094 C 164.417969 54.527344 173.9375 44.996094 185.644531 44.996094 C 197.351562 44.996094 206.875 54.527344 206.875 66.246094 C 206.875 77.960938 197.351562 87.492188 185.644531 87.492188 Z M 185.644531 48.847656 C 176.0625 48.847656 168.265625 56.652344 168.265625 66.246094 C 168.265625 75.835938 176.0625 83.640625 185.644531 83.640625 C 195.226562 83.640625 203.023438 75.835938 203.023438 66.246094 C 203.023438 56.652344 195.226562 48.847656 185.644531 48.847656 Z M 185.644531 48.847656 " fill-opacity="1" fill-rule="nonzero"/><path fill="#000000" d="M 185.644531 78.300781 C 179.003906 78.300781 173.59375 72.894531 173.59375 66.238281 C 173.59375 59.582031 178.996094 54.171875 185.644531 54.171875 C 192.296875 54.171875 197.699219 59.582031 197.699219 66.238281 C 197.699219 72.894531 192.289062 78.300781 185.644531 78.300781 Z M 185.644531 58.03125 C 181.121094 58.03125 177.441406 61.714844 177.441406 66.246094 C 177.441406 70.773438 181.121094 74.457031 185.644531 74.457031 C 190.171875 74.457031 193.851562 70.773438 193.851562 66.246094 C 193.851562 61.714844 190.171875 58.03125 185.644531 58.03125 Z M 185.644531 58.03125 " fill-opacity="1" fill-rule="nonzero"/><path fill="#000000" d="M 177.742188 61.835938 C 177.339844 61.835938 176.941406 61.714844 176.59375 61.460938 L 169.21875 55.984375 C 168.367188 55.351562 168.1875 54.140625 168.820312 53.285156 C 169.453125 52.429688 170.660156 52.253906 171.515625 52.886719 L 178.886719 58.363281 C 179.742188 58.996094 179.917969 60.203125 179.289062 61.058594 C 178.910156 61.566406 178.324219 61.835938 177.742188 61.835938 Z M 177.742188 61.835938 " fill-opacity="1" fill-rule="nonzero"/><path fill="#000000" d="M 193.972656 61.851562 C 193.375 61.851562 192.789062 61.574219 192.410156 61.050781 C 191.789062 60.1875 191.988281 58.988281 192.851562 58.363281 L 199.59375 53.515625 C 200.453125 52.902344 201.65625 53.09375 202.277344 53.957031 C 202.902344 54.820312 202.703125 56.019531 201.839844 56.644531 L 195.097656 61.492188 C 194.757812 61.738281 194.367188 61.851562 193.972656 61.851562 Z M 193.972656 61.851562 " fill-opacity="1" fill-rule="nonzero"/><path fill="#000000" d="M 170.367188 80.042969 C 169.78125 80.042969 169.199219 79.773438 168.820312 79.265625 C 168.1875 78.410156 168.367188 77.207031 169.21875 76.566406 L 176.59375 71.089844 C 177.449219 70.457031 178.648438 70.636719 179.289062 71.492188 C 179.917969 72.347656 179.742188 73.546875 178.886719 74.1875 L 171.515625 79.664062 C 171.167969 79.917969 170.765625 80.042969 170.367188 80.042969 Z M 170.367188 80.042969 " fill-opacity="1" fill-rule="nonzero"/><path fill="#000000" d="M 200.714844 79.402344 C 200.332031 79.402344 199.9375 79.285156 199.59375 79.039062 L 192.851562 74.195312 C 191.988281 73.570312 191.789062 72.367188 192.410156 71.507812 C 193.035156 70.644531 194.234375 70.441406 195.097656 71.066406 L 201.839844 75.914062 C 202.703125 76.535156 202.902344 77.738281 202.277344 78.601562 C 201.902344 79.125 201.316406 79.402344 200.714844 79.402344 Z M 200.714844 79.402344 " fill-opacity="1" fill-rule="nonzero"/><path fill="#000000" d="M 296.863281 224.792969 L 72.769531 224.792969 L 72.769531 213.8125 L 296.863281 213.8125 Z M 76.621094 220.9375 L 293.015625 220.9375 L 293.015625 217.664062 L 76.621094 217.664062 Z M 76.621094 220.9375 " fill-opacity="1" fill-rule="nonzero"/><path fill="#000000" d="M 93.875 107.066406 C 92.8125 107.066406 91.953125 106.203125 91.953125 105.140625 L 91.953125 87.9375 C 91.953125 86.875 92.8125 86.011719 93.875 86.011719 C 94.9375 86.011719 95.800781 86.875 95.800781 87.9375 L 95.800781 105.140625 C 95.800781 106.203125 94.9375 107.066406 93.875 107.066406 Z M 93.875 107.066406 " fill-opacity="1" fill-rule="nonzero"/><path fill="#000000" d="M 112.234375 106.113281 C 111.171875 106.113281 110.308594 105.25 110.308594 104.1875 L 110.308594 75.058594 C 110.308594 73.996094 111.171875 73.132812 112.234375 73.132812 C 113.296875 73.132812 114.15625 73.996094 114.15625 75.058594 L 114.15625 104.1875 C 114.15625 105.25 113.296875 106.113281 112.234375 106.113281 Z M 112.234375 106.113281 " fill-opacity="1" fill-rule="nonzero"/><path fill="#000000" d="M 130.582031 104.710938 C 129.519531 104.710938 128.65625 103.847656 128.65625 102.785156 L 128.65625 61.738281 C 128.65625 60.675781 129.519531 59.8125 130.582031 59.8125 C 131.644531 59.8125 132.507812 60.675781 132.507812 61.738281 L 132.507812 102.785156 C 132.507812 103.847656 131.644531 104.710938 130.582031 104.710938 Z M 130.582031 104.710938 " fill-opacity="1" fill-rule="nonzero"/><path fill="#000000" d="M 148.9375 109.210938 C 147.878906 109.210938 147.015625 108.347656 147.015625 107.28125 L 147.015625 48.292969 C 147.015625 47.230469 147.878906 46.367188 148.9375 46.367188 C 150 46.367188 150.863281 47.230469 150.863281 48.292969 L 150.863281 107.277344 C 150.863281 108.347656 150 109.210938 148.9375 109.210938 Z M 148.9375 109.210938 " fill-opacity="1" fill-rule="nonzero"/><path fill="#000000" d="M 167.289062 104.917969 C 166.226562 104.917969 165.363281 104.054688 165.363281 102.992188 L 165.363281 72.632812 C 165.363281 71.566406 166.226562 70.703125 167.289062 70.703125 C 168.351562 70.703125 169.210938 71.566406 169.210938 72.632812 L 169.210938 102.992188 C 169.210938 104.054688 168.359375 104.917969 167.289062 104.917969 Z M 167.289062 104.917969 " fill-opacity="1" fill-rule="nonzero"/><path fill="#000000" d="M 167.289062 61.003906 C 166.226562 61.003906 165.363281 60.144531 165.363281 59.078125 L 165.363281 35.914062 C 165.363281 34.851562 166.226562 33.988281 167.289062 33.988281 C 168.351562 33.988281 169.210938 34.851562 169.210938 35.914062 L 169.210938 59.070312 C 169.210938 60.144531 168.359375 61.003906 167.289062 61.003906 Z M 167.289062 61.003906 " fill-opacity="1" fill-rule="nonzero"/><path fill="#000000" d="M 185.644531 104.917969 C 184.582031 104.917969 183.722656 104.054688 183.722656 102.992188 L 183.722656 86.351562 C 183.722656 85.289062 184.582031 84.425781 185.644531 84.425781 C 186.707031 84.425781 187.570312 85.289062 187.570312 86.351562 L 187.570312 102.992188 C 187.570312 104.054688 186.707031 104.917969 185.644531 104.917969 Z M 185.644531 104.917969 " fill-opacity="1" fill-rule="nonzero"/><path fill="#000000" d="M 185.644531 77.308594 C 184.582031 77.308594 183.722656 76.445312 183.722656 75.382812 L 183.722656 56.105469 C 183.722656 55.042969 184.582031 54.179688 185.644531 54.179688 C 186.707031 54.179688 187.570312 55.042969 187.570312 56.105469 L 187.570312 75.382812 C 187.570312 76.445312 186.707031 77.308594 185.644531 77.308594 Z M 185.644531 77.308594 " fill-opacity="1" fill-rule="nonzero"/><path fill="#000000" d="M 185.644531 47.902344 C 184.582031 47.902344 183.722656 47.039062 183.722656 45.976562 L 183.722656 23.28125 C 183.722656 22.214844 184.582031 21.355469 185.644531 21.355469 C 186.707031 21.355469 187.570312 22.214844 187.570312 23.28125 L 187.570312 45.96875 C 187.570312 47.039062 186.707031 47.902344 185.644531 47.902344 Z M 185.644531 47.902344 " fill-opacity="1" fill-rule="nonzero"/><path fill="#000000" d="M 204.003906 107.066406 C 202.941406 107.066406 202.078125 106.203125 202.078125 105.140625 L 202.078125 72.632812 C 202.078125 71.566406 202.941406 70.703125 204.003906 70.703125 C 205.066406 70.703125 205.925781 71.566406 205.925781 72.632812 L 205.925781 105.140625 C 205.925781 106.203125 205.066406 107.066406 204.003906 107.066406 Z M 204.003906 107.066406 " fill-opacity="1" fill-rule="nonzero"/><path fill="#000000" d="M 204.003906 61.003906 C 202.941406 61.003906 202.078125 60.144531 202.078125 59.078125 L 202.078125 36.03125 C 202.078125 34.964844 202.941406 34.105469 204.003906 34.105469 C 205.066406 34.105469 205.925781 34.964844 205.925781 36.03125 L 205.925781 59.070312 C 205.925781 60.144531 205.066406 61.003906 204.003906 61.003906 Z M 204.003906 61.003906 " fill-opacity="1" fill-rule="nonzero"/><path fill="#000000" d="M 222.351562 104.515625 C 221.289062 104.515625 220.425781 103.65625 220.425781 102.589844 L 220.425781 50.167969 C 220.425781 49.101562 221.289062 48.242188 222.351562 48.242188 C 223.414062 48.242188 224.277344 49.101562 224.277344 50.167969 L 224.277344 102.589844 C 224.277344 103.65625 223.414062 104.515625 222.351562 104.515625 Z M 222.351562 104.515625 " fill-opacity="1" fill-rule="nonzero"/><path fill="#000000" d="M 240.707031 107.066406 C 239.648438 107.066406 238.785156 106.203125 238.785156 105.140625 L 238.785156 64.765625 C 238.785156 63.703125 239.648438 62.839844 240.707031 62.839844 C 241.769531 62.839844 242.632812 63.703125 242.632812 64.765625 L 242.632812 105.148438 C 242.632812 106.203125 241.769531 107.066406 240.707031 107.066406 Z M 240.707031 107.066406 " fill-opacity="1" fill-rule="nonzero"/><path fill="#000000" d="M 259.058594 107.066406 C 257.996094 107.066406 257.132812 106.203125 257.132812 105.140625 L 257.132812 77.476562 C 257.132812 76.414062 257.996094 75.550781 259.058594 75.550781 C 260.121094 75.550781 260.984375 76.414062 260.984375 77.476562 L 260.984375 105.140625 C 260.984375 106.203125 260.121094 107.066406 259.058594 107.066406 Z M 259.058594 107.066406 " fill-opacity="1" fill-rule="nonzero"/><path fill="#000000" d="M 277.414062 104.515625 C 276.351562 104.515625 275.492188 103.65625 275.492188 102.589844 L 275.492188 91.3125 C 275.492188 90.25 276.351562 89.386719 277.414062 89.386719 C 278.476562 89.386719 279.339844 90.25 279.339844 91.3125 L 279.339844 102.589844 C 279.339844 103.65625 278.476562 104.515625 277.414062 104.515625 Z M 277.414062 104.515625 " fill-opacity="1" fill-rule="nonzero"/><path fill="#000000" d="M 93.285156 264.414062 L 85.65625 264.414062 L 83.140625 222.988281 C 83.078125 221.925781 83.886719 221.015625 84.941406 220.945312 C 85.996094 220.886719 86.910156 221.6875 86.980469 222.75 L 89.273438 260.558594 L 89.65625 260.558594 L 91.953125 222.75 C 92.011719 221.6875 92.929688 220.863281 93.992188 220.945312 C 95.054688 221.007812 95.863281 221.925781 95.792969 222.988281 Z M 93.285156 264.414062 " fill-opacity="1" fill-rule="nonzero"/><path fill="#000000" d="M 285.644531 264.414062 L 278.015625 264.414062 L 275.5 222.988281 C 275.4375 221.925781 276.238281 221.015625 277.300781 220.945312 C 278.363281 220.886719 279.269531 221.6875 279.339844 222.75 L 281.632812 260.558594 L 282.019531 260.558594 L 284.3125 222.75 C 284.375 221.6875 285.273438 220.863281 286.351562 220.945312 C 287.414062 221.007812 288.222656 221.925781 288.152344 222.988281 Z M 285.644531 264.414062 " fill-opacity="1" fill-rule="nonzero"/><path fill="#000000" d="M 207.605469 264.414062 C 206.542969 264.414062 205.679688 263.550781 205.679688 262.488281 L 205.679688 215.746094 C 205.679688 214.683594 206.542969 213.820312 207.605469 213.820312 C 208.667969 213.820312 209.527344 214.683594 209.527344 215.746094 L 209.527344 262.488281 C 209.527344 263.550781 208.667969 264.414062 207.605469 264.414062 Z M 207.605469 264.414062 " fill-opacity="1" fill-rule="nonzero"/><path fill="#000000" d="M 255.070312 264.414062 C 254.007812 264.414062 253.148438 263.550781 253.148438 262.488281 L 253.148438 215.746094 C 253.148438 214.683594 254.007812 213.820312 255.070312 213.820312 C 256.132812 213.820312 256.996094 214.683594 256.996094 215.746094 L 256.996094 262.488281 C 256.996094 263.550781 256.132812 264.414062 255.070312 264.414062 Z M 255.070312 264.414062 " fill-opacity="1" fill-rule="nonzero"/><path fill="#000000" d="M 255.070312 231.238281 L 207.605469 231.238281 C 206.542969 231.238281 205.679688 230.375 205.679688 229.3125 C 205.679688 228.25 206.542969 227.386719 207.605469 227.386719 L 255.070312 227.386719 C 256.132812 227.386719 256.996094 228.25 256.996094 229.3125 C 256.996094 230.375 256.132812 231.238281 255.070312 231.238281 Z M 255.070312 231.238281 " fill-opacity="1" fill-rule="nonzero"/><path fill="#000000" d="M 255.070312 244.804688 L 207.605469 244.804688 C 206.542969 244.804688 205.679688 243.941406 205.679688 242.878906 C 205.679688 241.816406 206.542969 240.953125 207.605469 240.953125 L 255.070312 240.953125 C 256.132812 240.953125 256.996094 241.816406 256.996094 242.878906 C 256.996094 243.941406 256.132812 244.804688 255.070312 244.804688 Z M 255.070312 244.804688 " fill-opacity="1" fill-rule="nonzero"/><path fill="#000000" d="M 92.667969 244.804688 C 91.984375 244.804688 91.328125 244.445312 90.972656 243.804688 C 90.464844 242.871094 90.804688 241.703125 91.742188 241.191406 L 128.359375 221.179688 C 129.289062 220.667969 130.460938 221.015625 130.96875 221.949219 C 131.476562 222.878906 131.136719 224.050781 130.199219 224.558594 L 93.582031 244.574219 C 93.289062 244.730469 92.976562 244.804688 92.667969 244.804688 Z M 92.667969 244.804688 " fill-opacity="1" fill-rule="nonzero"/><path fill="#000000" d="M 277.367188 244.804688 C 277.054688 244.804688 276.738281 244.730469 276.445312 244.566406 L 239.832031 224.550781 C 238.898438 224.042969 238.554688 222.871094 239.0625 221.941406 C 239.570312 221.007812 240.738281 220.660156 241.671875 221.171875 L 278.285156 241.183594 C 279.214844 241.695312 279.5625 242.863281 279.054688 243.796875 C 278.707031 244.445312 278.046875 244.804688 277.367188 244.804688 Z M 277.367188 244.804688 " fill-opacity="1" fill-rule="nonzero"/><path fill="#000000" d="M 85.054688 115.488281 L 117.722656 115.488281 L 117.722656 119.339844 L 85.054688 119.339844 Z M 85.054688 115.488281 " fill-opacity="1" fill-rule="nonzero"/><path fill="#000000" d="M 265.777344 123.667969 L 286.226562 123.667969 L 286.226562 127.519531 L 265.777344 127.519531 Z M 265.777344 123.667969 " fill-opacity="1" fill-rule="nonzero"/><path fill="#000000" d="M 228.277344 123.667969 L 256.078125 123.667969 L 256.078125 127.519531 L 228.277344 127.519531 Z M 228.277344 123.667969 " fill-opacity="1" fill-rule="nonzero"/><path fill="#000000" d="M 175.515625 152.835938 L 200.714844 152.835938 L 200.714844 156.6875 L 175.515625 156.6875 Z M 175.515625 152.835938 " fill-opacity="1" fill-rule="nonzero"/><path fill="#000000" d="M 262.042969 152.835938 L 281.816406 152.835938 L 281.816406 156.6875 L 262.042969 156.6875 Z M 262.042969 152.835938 " fill-opacity="1" fill-rule="nonzero"/><path fill="#000000" d="M 87.503906 202.480469 L 175.515625 202.480469 L 175.515625 206.332031 L 87.503906 206.332031 Z M 87.503906 202.480469 " fill-opacity="1" fill-rule="nonzero"/><path fill="#000000" d="M 263.46875 202.480469 L 286.234375 202.480469 L 286.234375 206.332031 L 263.46875 206.332031 Z M 263.46875 202.480469 " fill-opacity="1" fill-rule="nonzero"/><path fill="#000000" d="M 348.058594 285.730469 L 320.394531 270.898438 C 312.488281 266.660156 303.5625 264.414062 294.585938 264.414062 L 79.328125 264.414062 C 70.355469 264.414062 61.433594 266.652344 53.519531 270.898438 L 25.859375 285.730469 L 24.042969 282.332031 L 51.703125 267.5 C 60.171875 262.964844 69.722656 260.558594 79.328125 260.558594 L 294.59375 260.558594 C 304.199219 260.558594 313.753906 262.957031 322.21875 267.5 L 349.882812 282.332031 Z M 348.058594 285.730469 " fill-opacity="1" fill-rule="nonzero"/><path fill="#000000" d="M 35.609375 279.019531 C 34.632812 279.019531 33.792969 278.273438 33.695312 277.277344 L 32.863281 268.480469 C 28 214.769531 33.878906 180.101562 39.675781 160.488281 C 46.015625 138.992188 53.519531 130.371094 53.835938 130.015625 L 59.238281 123.929688 L 57.132812 131.796875 C 56.960938 132.4375 40.296875 196.21875 58.078125 265.296875 C 58.339844 266.332031 57.722656 267.378906 56.691406 267.640625 C 55.667969 267.902344 54.613281 267.285156 54.351562 266.253906 C 40.675781 213.105469 47.09375 163.050781 51.082031 141.664062 C 48.6875 146.363281 45.855469 153.019531 43.253906 161.949219 C 37.621094 181.21875 31.917969 215.277344 36.695312 268.117188 L 37.527344 276.910156 C 37.628906 277.972656 36.851562 278.902344 35.796875 279.011719 C 35.734375 279.011719 35.671875 279.019531 35.609375 279.019531 Z M 35.609375 279.019531 " fill-opacity="1" fill-rule="nonzero"/><path fill="#000000" d="M 44.617188 178.035156 L 38.980469 178.035156 C 37.917969 178.035156 37.058594 177.171875 37.058594 176.109375 C 37.058594 175.046875 37.917969 174.183594 38.980469 174.183594 L 44.617188 174.183594 C 45.679688 174.183594 46.539062 175.046875 46.539062 176.109375 C 46.539062 177.171875 45.679688 178.035156 44.617188 178.035156 Z M 44.617188 178.035156 " fill-opacity="1" fill-rule="nonzero"/><path fill="#000000" d="M 41.800781 194.921875 L 35.609375 194.921875 C 34.546875 194.921875 33.6875 194.058594 33.6875 192.996094 C 33.6875 191.933594 34.546875 191.070312 35.609375 191.070312 L 41.800781 191.070312 C 42.859375 191.070312 43.722656 191.933594 43.722656 192.996094 C 43.722656 194.058594 42.859375 194.921875 41.800781 194.921875 Z M 41.800781 194.921875 " fill-opacity="1" fill-rule="nonzero"/><path fill="#000000" d="M 48.308594 212.765625 L 33.695312 212.765625 C 32.632812 212.765625 31.769531 211.902344 31.769531 210.839844 C 31.769531 209.777344 32.632812 208.914062 33.695312 208.914062 L 48.308594 208.914062 C 49.371094 208.914062 50.234375 209.777344 50.234375 210.839844 C 50.234375 211.902344 49.371094 212.765625 48.308594 212.765625 Z M 48.308594 212.765625 " fill-opacity="1" fill-rule="nonzero"/><path fill="#000000" d="M 43.484375 229.628906 L 33.15625 229.628906 C 32.09375 229.628906 31.230469 228.765625 31.230469 227.703125 C 31.230469 226.640625 32.09375 225.777344 33.15625 225.777344 L 43.484375 225.777344 C 44.546875 225.777344 45.410156 226.640625 45.410156 227.703125 C 45.410156 228.765625 44.546875 229.628906 43.484375 229.628906 Z M 43.484375 229.628906 " fill-opacity="1" fill-rule="nonzero"/><path fill="#000000" d="M 43.484375 248.117188 L 33.917969 248.117188 C 32.855469 248.117188 31.992188 247.253906 31.992188 246.191406 C 31.992188 245.128906 32.855469 244.265625 33.917969 244.265625 L 43.484375 244.265625 C 44.546875 244.265625 45.410156 245.128906 45.410156 246.191406 C 45.410156 247.253906 44.546875 248.117188 43.484375 248.117188 Z M 43.484375 248.117188 " fill-opacity="1" fill-rule="nonzero"/><path fill="#000000" d="M 74.242188 149.902344 C 73.941406 149.902344 73.640625 149.832031 73.355469 149.6875 C 68.097656 146.964844 59.457031 143.992188 52.796875 142.613281 C 51.757812 142.398438 51.089844 141.378906 51.304688 140.332031 C 51.519531 139.292969 52.542969 138.621094 53.582031 138.839844 C 60.648438 140.300781 69.507812 143.351562 75.125 146.265625 C 76.074219 146.75 76.441406 147.914062 75.949219 148.859375 C 75.609375 149.523438 74.933594 149.902344 74.242188 149.902344 Z M 74.242188 149.902344 " fill-opacity="1" fill-rule="nonzero"/><path fill="#000000" d="M 79.535156 143.152344 C 79.113281 143.152344 78.691406 143.015625 78.335938 142.730469 C 69.09375 135.339844 57.53125 128.105469 57.414062 128.03125 C 56.515625 127.46875 56.238281 126.28125 56.800781 125.378906 C 57.363281 124.476562 58.546875 124.199219 59.449219 124.761719 C 59.5625 124.839844 71.316406 132.191406 80.730469 139.714844 C 81.5625 140.378906 81.691406 141.589844 81.03125 142.421875 C 80.660156 142.90625 80.097656 143.152344 79.535156 143.152344 Z M 79.535156 143.152344 " fill-opacity="1" fill-rule="nonzero"/><g clip-path="url(#e4698664b3)"><path fill="#000000" d="M 4.824219 165.109375 L 6.300781 160.253906 C 14.867188 132.128906 56.355469 124.792969 58.117188 124.5 C 59.164062 124.324219 60.15625 125.03125 60.332031 126.082031 C 60.511719 127.128906 59.800781 128.121094 58.753906 128.300781 C 58.378906 128.359375 23.296875 134.578125 12.074219 156.257812 C 20.910156 151.148438 39.519531 140.972656 51.449219 138.515625 C 52.488281 138.300781 53.507812 138.96875 53.722656 140.015625 C 53.9375 141.058594 53.265625 142.074219 52.21875 142.289062 C 37.125 145.394531 9.417969 162.296875 9.140625 162.464844 Z M 4.824219 165.109375 " fill-opacity="1" fill-rule="nonzero"/></g><path fill="#000000" d="M 43.9375 131.097656 C 43.199219 131.097656 42.5 130.671875 42.175781 129.949219 C 33.371094 110.09375 11.589844 99.363281 11.375 99.253906 L 5.117188 96.226562 L 12.035156 95.605469 C 41.375 92.960938 58.410156 124.15625 59.125 125.480469 C 59.625 126.417969 59.269531 127.582031 58.339844 128.082031 C 57.402344 128.585938 56.238281 128.230469 55.738281 127.296875 C 55.589844 127.019531 42.074219 102.328125 19.5625 99.546875 C 27.136719 104.457031 39.375 114.101562 45.703125 128.375 C 46.132812 129.347656 45.695312 130.488281 44.722656 130.917969 C 44.460938 131.042969 44.199219 131.097656 43.9375 131.097656 Z M 43.9375 131.097656 " fill-opacity="1" fill-rule="nonzero"/><path fill="#000000" d="M 58.441406 128.332031 C 58.269531 128.332031 58.09375 128.308594 57.925781 128.261719 C 56.898438 127.976562 56.300781 126.914062 56.585938 125.886719 C 56.691406 125.503906 66.3125 89.957031 50.25 72.40625 C 51.78125 80.773438 53.582031 96.835938 48.949219 112.445312 C 48.648438 113.460938 47.578125 114.046875 46.554688 113.738281 C 45.539062 113.4375 44.953125 112.367188 45.261719 111.34375 C 51.472656 90.410156 45.316406 67.816406 45.253906 67.585938 L 43.800781 62.363281 L 48.226562 65.496094 C 72.324219 82.601562 60.800781 125.117188 60.300781 126.921875 C 60.046875 127.769531 59.277344 128.332031 58.441406 128.332031 Z M 58.441406 128.332031 " fill-opacity="1" fill-rule="nonzero"/><path fill="#000000" d="M 72.632812 136.382812 C 72.339844 136.382812 72.039062 136.3125 71.761719 136.171875 C 70.816406 135.695312 70.4375 134.53125 70.917969 133.585938 C 72.300781 130.847656 78.351562 123.847656 81.832031 119.917969 C 82.539062 119.125 83.753906 119.046875 84.546875 119.753906 C 85.339844 120.464844 85.417969 121.683594 84.707031 122.476562 C 79.160156 128.738281 75.195312 133.660156 74.347656 135.332031 C 74.011719 135.996094 73.332031 136.382812 72.632812 136.382812 Z M 72.632812 136.382812 " fill-opacity="1" fill-rule="nonzero"/><path fill="#000000" d="M 58.441406 128.332031 C 57.871094 128.332031 57.300781 128.074219 56.921875 127.589844 C 56.269531 126.75 56.414062 125.542969 57.253906 124.886719 C 57.753906 124.492188 69.691406 115.195312 81.882812 109.855469 C 82.855469 109.433594 83.992188 109.871094 84.417969 110.851562 C 84.839844 111.820312 84.402344 112.960938 83.421875 113.382812 C 71.679688 118.53125 59.742188 127.820312 59.625 127.914062 C 59.269531 128.191406 58.847656 128.332031 58.441406 128.332031 Z M 58.441406 128.332031 " fill-opacity="1" fill-rule="nonzero"/><path fill="#000000" d="M 318.191406 269.171875 C 313.214844 269.171875 308.226562 261.933594 303.367188 247.632812 C 298.726562 233.972656 294.808594 215.554688 292.332031 195.769531 C 288.882812 168.214844 292.847656 143.136719 295.519531 130.640625 C 296.085938 127.96875 298.195312 126.027344 300.875 125.695312 C 303.554688 125.355469 306.078125 126.71875 307.285156 129.171875 C 312.960938 140.617188 322.988281 163.9375 326.4375 191.496094 C 331.132812 229.019531 330.03125 267.742188 318.832031 269.144531 C 318.625 269.15625 318.410156 269.171875 318.191406 269.171875 Z M 301.660156 129.484375 C 301.53125 129.484375 301.429688 129.492188 301.351562 129.5 C 300.953125 129.546875 299.621094 129.839844 299.273438 131.433594 C 296.648438 143.691406 292.761719 168.28125 296.140625 195.277344 C 298.589844 214.808594 302.445312 232.957031 307.007812 246.378906 C 312.242188 261.777344 316.578125 265.515625 318.363281 265.296875 C 320.117188 265.074219 323.417969 260.375 324.695312 244.160156 C 325.804688 230.023438 325.074219 211.488281 322.625 191.949219 C 319.246094 164.953125 309.410156 142.082031 303.847656 130.855469 C 303.253906 129.671875 302.230469 129.484375 301.660156 129.484375 Z M 301.660156 129.484375 " fill-opacity="1" fill-rule="nonzero"/><path fill="#000000" d="M 318.59375 269.148438 C 317.640625 269.148438 316.808594 268.441406 316.683594 267.464844 L 305.753906 180.183594 C 305.625 179.128906 306.371094 178.167969 307.425781 178.035156 C 308.480469 177.898438 309.441406 178.652344 309.574219 179.707031 L 320.503906 266.984375 C 320.632812 268.039062 319.886719 269.003906 318.832031 269.136719 C 318.753906 269.144531 318.679688 269.148438 318.59375 269.148438 Z M 318.59375 269.148438 " fill-opacity="1" fill-rule="nonzero"/><path fill="#000000" d="M 110.109375 76.566406 C 109.722656 76.566406 109.332031 76.453125 109 76.214844 C 99.734375 69.632812 94.199219 58.917969 94.199219 47.5625 C 94.199219 28.203125 109.9375 12.449219 129.28125 12.449219 C 144.859375 12.449219 158.730469 22.902344 163.007812 37.878906 C 163.300781 38.902344 162.707031 39.964844 161.691406 40.257812 C 160.667969 40.550781 159.605469 39.957031 159.316406 38.941406 C 155.496094 25.613281 143.152344 16.308594 129.28125 16.308594 C 112.054688 16.308594 98.046875 30.328125 98.046875 47.570312 C 98.046875 57.683594 102.972656 67.222656 111.226562 73.085938 C 112.09375 73.703125 112.292969 74.902344 111.679688 75.773438 C 111.300781 76.28125 110.707031 76.566406 110.109375 76.566406 Z M 110.109375 76.566406 " fill-opacity="1" fill-rule="nonzero"/></svg>